<?xml version="1.0" encoding="UTF-8"?>
<svg id="Calque_2" data-name="Calque 2" xmlns="http://www.w3.org/2000/svg" viewBox="0 0 191.76 268.62">
  <defs>
    <style>
      .cls-1 {
        fill: #1e1f1d;
      }
    </style>
  </defs>
  <g id="CHIFFRE">
    <path id="_0" data-name="0" class="cls-1" d="M174.4,61.68c-7.1-16.79-17.74-37.42-37.24-48.02-8.35-4.54-18.56-7.98-32.13-10.81C91.99,.13,80.46-.64,69.79,.52c-13.12,1.42-24.26,5.41-33.13,11.85-9.46,6.87-16.97,16.76-22.34,29.4-1.94,4.58,.72,8.94,4.42,10.51,3.62,1.54,7.23,.08,8.77-3.54,4.28-10.09,9.48-17.54,15.89-22.79,6.31-5.16,14.46-8.58,24.24-10.16,15.56-2.51,33.67-.06,53.81,7.28,14.93,5.44,26.25,16.99,35.62,36.35,9.56,19.76,15.94,40.92,18.46,61.19,5.48,44.17-5.49,85.78-29.34,111.3-12.51,13.39-29.55,21.33-46.73,21.78-17.35,.45-34.1-6.54-48.4-20.23C14.1,198.08,12.04,140.38,16.82,98.21c.45-3.95-2.01-7.02-5.98-7.47-3.95-.45-8.38,2.01-8.93,6.91-4.66,41.15-3.04,98.58,31.2,138.56,10.84,12.66,29.13,28.45,54.73,31.79,3.24,.42,6.5,.63,9.76,.63,17.24,0,34.51-5.82,48.56-16.56,16.45-12.58,28.78-30.62,36.65-53.63,6.73-19.7,9.77-42.06,8.78-64.66-1.02-23.27-6.8-47.53-17.18-72.09Z"/>
  </g>
</svg>