<?xml version="1.0" encoding="UTF-8"?>
<svg id="Calque_2" data-name="Calque 2" xmlns="http://www.w3.org/2000/svg" viewBox="0 0 147.85 256.91">
  <defs>
    <style>
      .cls-1 {
        fill: #1e1f1d;
      }
    </style>
  </defs>
  <g id="CHIFFRE">
    <g id="_1" data-name="1">
      <path class="cls-1" d="M7.94,71.91c1.83,1.57,4.29,1.97,6.74,1.11,1.66-.59,3.33-1.17,5-1.75,15.83-5.53,32.21-11.25,46.22-21.16,7.34-5.19,14.1-11.48,20.59-19.23,.02,4.7,.02,9.52-.07,14.24-.24,11.94-.66,24.63-1.35,39.92-.51,11.49-1.12,23.18-1.7,34.48-.75,14.59-1.53,29.67-2.13,44.52-.11,2.63,1.04,4.91,3.13,6.23,1.23,.77,2.67,1.17,4.14,1.17,1.29,0,2.6-.31,3.77-.92,2.36-1.24,3.78-3.53,3.89-6.28,.6-14.81,1.37-29.86,2.12-44.42,.58-11.32,1.18-23.03,1.7-34.55,.67-14.96,1.09-27.39,1.33-39.11,.12-5.67,.1-11.42,.08-16.99-.02-6.43-.04-13.06,.14-19.58l.79-1.27-.74-.2c0-.23,.02-.45,.02-.68,.12-3.32-1.88-6.1-5.1-7.08-3.38-1.03-7,.27-8.79,3.16-.15,.24-.3,.48-.45,.72l-.49-.13-.03,.96c-9.72,15.35-19.28,25.94-30,33.23-12.67,8.62-27.52,13.82-41.89,18.84-1.5,.53-3.01,1.05-4.51,1.58-2.63,.93-4.43,3.01-4.93,5.71-.52,2.8,.46,5.74,2.5,7.48Z"/>
      <path class="cls-1" d="M140.89,241.03c-17.45-2.01-33.33-10.27-48.68-18.27-17.17-8.94-34.93-18.18-55.34-19.15-9.16-.44-21.78,1.85-29.79,9.58C2.3,217.8-.08,223.57,0,230.34c.23,19.1,23.49,26.35,39.07,26.56,.28,0,.57,0,.85,0,16.19,0,32.94-6.26,49.84-18.64,.03,.02,.06,.03,.09,.05,15.03,7.86,31.55,15.44,50.46,17.61,2.52,.29,4.76-.61,6.14-2.48,1.56-2.1,1.83-5.16,.69-7.79-1.14-2.62-3.42-4.31-6.25-4.64Zm-95.46,.65c-7.05,.78-13.85,.04-20.2-2.2-4.22-1.49-11.14-4.84-10.17-10.63,.53-3.15,2.04-5.51,4.62-7.22,3.48-2.31,8.53-3.19,13.9-3.19,4.91,0,10.09,.74,14.58,1.8,9.26,2.19,18.1,6.03,26.68,10.29-9.91,6.28-19.93,10.09-29.41,11.14Z"/>
    </g>
  </g>
</svg>