<?xml version="1.0" encoding="UTF-8"?>
<svg id="Calque_2" data-name="Calque 2" xmlns="http://www.w3.org/2000/svg" viewBox="0 0 183.79 268.62">
  <defs>
    <style>
      .cls-1 {
        fill: #1e1f1d;
      }
    </style>
  </defs>
  <g id="CHIFFRE">
    <g id="_2" data-name="2">
      <path class="cls-1" d="M179.29,244.57c-2.15-.96-4.57-.65-6.65,.86-12.87,9.33-30.41,10.16-52.14,2.46-9.99-3.53-19.59-8.6-28.87-13.49-9.01-4.75-18.33-9.67-28.14-13.28-12.25-4.52-42.39-13.07-57.61,5.09-6.82,8.14-7.82,19.06-2.48,27.19,6.34,9.65,18.88,13.12,25.79,14.33,3.53,.62,7.02,.9,10.45,.9,19.59,0,37.23-9.27,50.03-18.6,11.58,6.02,23.58,11.95,36.59,15.22,15.05,3.78,36.69,5.6,54.34-7.19,2.29-1.66,3.44-4.22,3.15-7.03-.3-2.85-2.05-5.38-4.46-6.46Zm-163.96-5.74c1.71-3.81,6.56-6.78,10.47-7.75,3.03-.75,6.12-1.09,9.25-1.09,13.26,0,27.15,6.05,39.67,12.31-10.64,6.74-24.39,12.53-39.18,11.26-7.74-.67-17.06-3.35-19.97-8.88-1.04-1.98-1.12-3.9-.25-5.86Z"/>
      <path class="cls-1" d="M11.92,50.19c3.8,.27,8.05-2.11,8.41-7.08,1.32-18.32,22.64-27.46,37.36-28.09,17.82-.77,35.92,6.79,49.69,20.74,24.43,24.74,35.81,65.44,29.71,106.22-3.27,21.89-11.1,42.47-23.26,61.17-2.53,3.89-.82,7.9,2.17,9.84,1.29,.84,2.86,1.33,4.45,1.33,2.28,0,4.59-1.01,6.16-3.43,25.29-38.9,33.38-87.78,21.64-130.74-6.03-22.05-17.53-42.15-32.38-56.59C98.6,6.79,77.88-1.29,55.94,.17c-12.07,.81-24.17,5.19-33.22,12.03C12.25,20.12,6.26,30.68,5.4,42.75c-.29,4.02,2.45,7.14,6.52,7.44Z"/>
    </g>
  </g>
</svg>