<?xml version="1.0" encoding="UTF-8"?>
<svg id="Calque_2" data-name="Calque 2" xmlns="http://www.w3.org/2000/svg" viewBox="0 0 133.12 268.53">
  <defs>
    <style>
      .cls-1 {
        fill: #1e1f1d;
      }
    </style>
  </defs>
  <g id="CHIFFRE">
    <g id="_3" data-name="3">
      <path class="cls-1" d="M3.68,66.93c2.45,1.36,5.56,1.32,7.92-.1,2.17-1.3,3.39-3.58,3.35-6.25-.34-19.94,14.92-39.51,34.74-44.55,22.32-5.68,39.83,11.43,47.28,30.9,7.99,20.89,7.14,44.24-2.34,64.07-2.53,5.29-5.51,10.24-8.86,14.75-11.91-5.31-28.6-10.75-44.35-4.4-13.06,5.27-23.94,19.9-18.75,34.35,1.81,5.04,5.01,8.63,9.52,10.69,3.13,1.43,6.56,1.97,9.96,1.97,6.49,0,12.88-1.98,16.89-3.54,13.37-5.18,25.7-14.31,35.64-26.39,18.63-22.63,26.49-52.65,21.03-80.31-2.95-14.95-9.33-28.78-17.97-38.96C87.48,7.12,74.37,.49,59.8,.03c-14.53-.48-29.48,5.77-40.99,17.11C6.59,29.17-.26,45.03,0,60.66c.05,2.72,1.38,5,3.67,6.27Zm71.55,70.52c-8.17,7.46-17.52,12.79-27.31,15.31-4.43,1.14-7.75,1.13-9.62-.03-.97-.6-1.56-1.54-1.85-2.94-.97-4.69,2.66-9.73,6.45-12.43,3.81-2.72,8.35-4.08,13.68-4.08s11.58,1.39,18.64,4.17Z"/>
      <path class="cls-1" d="M111.2,164.43c.78,3.92,1.77,7.91,2.72,11.77,2.78,11.21,5.65,22.79,3.68,34.07-2.19,12.53-9.02,24.01-19.23,32.31-11.08,9.01-25.44,12.88-38.42,10.35-12.56-2.45-24.68-9.5-37.04-21.53-3.43-3.34-8-2.35-10.55,.27-2.56,2.63-3.37,7.03,.03,10.34,17.83,17.36,37.7,26.52,56.59,26.52,6.04,0,11.98-.94,17.71-2.84,24.19-8.02,42.64-30.27,45.93-55.37,1.69-12.91-1.33-25.45-4.24-37.58-.94-3.92-1.92-7.97-2.7-11.93-.5-2.54-2.1-4.44-4.38-5.22-2.54-.87-5.57-.21-7.71,1.66-2.07,1.81-2.94,4.43-2.4,7.17Z"/>
    </g>
  </g>
</svg>