<?xml version="1.0" encoding="UTF-8"?>
<svg id="Calque_2" data-name="Calque 2" xmlns="http://www.w3.org/2000/svg" viewBox="0 0 138.82 268.38">
  <defs>
    <style>
      .cls-1 {
        fill: #1e1f1d;
      }
    </style>
  </defs>
  <g id="CHIFFRE">
    <g id="_4" data-name="4">
      <path class="cls-1" d="M129.3,92.56c-4.66-3.74-9.99-5.02-15.4-3.7-7.23,1.76-14.3,8.3-18.01,16.65-5.59,12.61-5.52,26.75-4.62,40.14,.07,1.05,.33,2.03,.76,2.91-14.33,3.77-31.52,1.54-45.26-6.31-14.94-8.53-24.8-25.51-29.32-50.45-3.57-19.72-2.74-40.23-1.94-60.08,.32-8.01,.66-16.29,.7-24.41,.01-2.69-1.25-4.97-3.46-6.26-2.4-1.4-5.51-1.41-7.93-.03C2.58,2.31,1.29,4.59,1.28,7.29c-.04,8.02-.34,16.21-.64,24.14C-.17,53.43-1.01,76.17,3.53,98.34c6.03,29.49,21.01,50.81,42.16,60.03,10.27,4.48,21.19,6.68,31.82,6.68,14.49,0,28.44-4.1,39.39-12.1,10.51-7.68,17.62-17.54,20.56-28.52,2.7-10.08,1.97-23.74-8.17-31.87Zm-8.75,34.46c-3.04,5.88-8.1,11.19-14.53,15.33-.48-8.22-.58-16.78,1.5-24.94,1.36-5.33,5.64-13.3,9.52-14.17,.13-.03,.34-.08,.61-.08,.74,0,1.99,.34,3.6,2.3,4.74,5.74,2.74,14.9-.7,21.56Z"/>
      <path class="cls-1" d="M100.3,175.85c-3.66-.11-7.68,2.41-7.81,7.23-.76,29.84-.85,54.68,5.37,79.85,.93,3.75,3.9,5.44,6.89,5.44,.65,0,1.3-.08,1.94-.24,3.59-.89,6.77-4.36,5.61-9.05-6.18-24.97-5.51-50.85-4.87-75.88,.12-4.71-3.5-7.27-7.13-7.36Z"/>
    </g>
  </g>
</svg>