<?xml version="1.0" encoding="UTF-8"?>
<svg id="Calque_2" data-name="Calque 2" xmlns="http://www.w3.org/2000/svg" viewBox="0 0 153.93 268.54">
  <defs>
    <style>
      .cls-1 {
        fill: #1e1f1d;
      }
    </style>
  </defs>
  <g id="CHIFFRE">
    <g id="_5" data-name="5">
      <path class="cls-1" d="M33.42,5.05C26.03-.75,13.89-2.64,5.93,5.28-.58,11.77-1.85,22.29,2.7,32.08c3.96,8.53,11.65,15.15,22.24,19.14,.59,.22,1.18,.43,1.78,.64-.62,1.98-1.27,3.93-1.91,5.84-.95,2.86-1.85,5.57-2.6,8.15-6.35,22.01-7.82,42.9-4.5,63.85,.4,2.51,1.87,4.42,4.05,5.26,.79,.3,1.64,.45,2.5,.45,1.81,0,3.69-.65,5.2-1.88,2.21-1.79,3.23-4.44,2.78-7.26-2.05-12.9-2.18-25.12-.39-36.31,1.47-9.18,4.2-18.31,6.84-27.14,.5-1.68,1-3.35,1.5-5.03,.27-.9,.55-1.86,.83-2.86,4.25,.44,8.58,.5,12.85,.17,13.04-1.04,26.79-4.31,38.72-9.22,11.18-4.6,20.41-11.39,27.44-20.17,3.07-3.84,1.7-8.71-1.4-11.19-3.12-2.5-7.04-2.07-9.53,1.04h0c-10.28,12.85-24.29,18.24-42.15,22.37-6.78,1.57-14.74,2.74-22.56,2.33,1.8-12.21,.77-25.98-10.96-35.2Zm-17.21,11.14c.89-1.02,1.86-1.51,3.01-1.51,.22,0,.45,.02,.69,.06,3.37,.52,7.3,4.53,8.72,7.8,1.96,4.51,2.22,9.57,1.56,14.82-3.56-1.42-6.87-3.41-9.78-6.12-3.12-2.91-8.25-10.41-4.19-15.04Z"/>
      <path class="cls-1" d="M91.31,253.47c-18.46,1.75-36.27-9.55-54.47-34.56-2.88-3.95-7.9-3.91-11.1-1.58-3.26,2.37-3.89,6.3-1.53,9.54,11.78,16.19,30.54,38.08,57.23,41.31,1.99,.24,4,.36,6.01,.36,20.47,0,41.6-12.19,54.06-31.7,9.49-14.87,13.86-35.49,11.99-56.59-1.96-22.03-10.2-40.56-23.2-52.18-10.55-9.43-34.72-23.35-78.01-10.65-2.61,.76-4.45,2.66-5.07,5.2-.66,2.72,.2,5.71,2.2,7.62,1.83,1.75,4.36,2.32,6.92,1.57,17.31-5.08,41.78-8.47,60.06,4.22,14.79,10.27,19.81,28.92,21.49,39.12,2.61,15.88,.9,32.11-4.81,45.72-7.49,17.84-24.27,30.95-41.77,32.61Z"/>
    </g>
  </g>
</svg>