<?xml version="1.0" encoding="UTF-8"?>
<svg id="Calque_2" data-name="Calque 2" xmlns="http://www.w3.org/2000/svg" viewBox="0 0 163.13 268.29">
  <defs>
    <style>
      .cls-1 {
        fill: #1e1f1d;
      }
    </style>
  </defs>
  <g id="CHIFFRE">
    <g id="_6" data-name="6">
      <path class="cls-1" d="M155.15,180.99c-10.03-18.14-28.3-31.96-48.86-36.99-18.25-4.46-38.56-3.01-57.17,4.08-26.98,10.28-39.04,23.57-44.4,32.91-5.33,9.29-6.19,19.39-2.35,27.73,3.76,8.17,12.09,13.96,22.29,15.49,5.53,.83,10.83,.46,15.86-.78,5.72,12.35,14.26,23.69,26.78,32.28,12.04,8.25,25.8,12.58,39.3,12.58,4.86,0,9.69-.56,14.38-1.7,18.33-4.45,32.95-18.18,39.11-36.72,5.34-16.1,3.59-33.46-4.94-48.88ZM16.82,204.06c-4.05-5.67-.63-12.93,.51-15.02,2.95-5.4,7.51-10.02,12.56-13.87,.45,10.83,1.95,22.64,5.36,34.18-.89,.16-1.8,.27-2.72,.34-2.6,.19-11.43,.36-15.71-5.63Zm61.58-8.2c1.79-2.22,2.22-5.01,1.19-7.67-1.04-2.67-3.38-4.66-5.98-5.06-2.31-.36-4.55,.58-6.14,2.56-4.69,5.84-10.93,12.87-18.37,17.82-3.38-12.19-4.43-24.85-4.42-35.96,0-.46-.03-.89-.1-1.31,2.79-1.37,5.39-2.49,7.6-3.38,15.23-6.11,31.58-8.01,46.04-5.34,17.09,3.16,32.76,13.29,41.91,27.09,7.34,11.07,9.77,23.49,7.04,35.91-3.29,14.91-13.28,26.39-26.73,30.7-13.49,4.32-28.44,2.13-42.11-6.17-11.25-6.83-18.91-16.53-24.04-27.39,9.66-5.7,17.85-14.05,24.09-21.82Z"/>
      <path class="cls-1" d="M91.72,1.68C55.44,30,42.47,77.5,34.58,120.23c-.51,2.77,.41,5.39,2.53,7.2,1.51,1.29,3.44,1.99,5.32,1.99,.82,0,1.62-.13,2.38-.4,2.24-.8,3.8-2.7,4.27-5.24,7.85-42.46,19.67-85.3,52.75-111.12,3.11-2.43,3.59-6.3,1.16-9.42-2.46-3.16-7.35-4.6-11.26-1.55Z"/>
    </g>
  </g>
</svg>