<?xml version="1.0" encoding="UTF-8"?>
<svg id="Calque_2" data-name="Calque 2" xmlns="http://www.w3.org/2000/svg" viewBox="0 0 137.68 268.64">
  <defs>
    <style>
      .cls-1 {
        fill: #1e1f1d;
      }
    </style>
  </defs>
  <g id="CHIFFRE">
    <g id="_7" data-name="7">
      <path class="cls-1" d="M125.59,3.11c-7.94-3.79-19.56-4.16-28.26-.9-7.35,2.75-12.87,8.78-15.97,17.44-3.17,8.85-3.13,18.14-2.65,28.44-3.31-.33-6.59-.81-9.77-1.35-13.67-2.31-27.54-4.99-40.95-7.59-6.27-1.21-12.53-2.43-18.8-3.61-4.75-.89-8.33,2.54-9.05,6.38-.75,3.97,1.56,7.38,5.49,8.12,6.58,1.24,13.29,2.58,19.78,3.88,15.38,3.08,31.28,6.26,47.06,8.4,2.53,.34,4.99,.6,7.39,.76,.82,7.65,2.01,15.41,3.56,23.21,.51,2.54,2.1,4.44,4.39,5.22,.75,.25,1.53,.38,2.32,.38,1.92,0,3.87-.71,5.38-2.04,2.07-1.81,2.94-4.43,2.39-7.17-1.1-5.55-2.34-12.33-3.25-19.74,13.15-1.32,23.82-5.97,31.86-13.93,6.79-6.73,12.69-19.35,10.81-30.47-1.18-7-5.24-12.33-11.73-15.42Zm-31.98,31.16c.51-7.16,2.13-12.19,4.95-15.38,2.78-3.14,7.45-3.9,11.31-3.9,2.48,0,4.63,.31,5.75,.51,2.63,.47,4.57,1.62,5.76,3.41,1.41,2.13,1.75,5.2,.97,8.64-1.16,5.07-4.58,9.92-9.63,13.67-5.75,4.26-12.38,6.29-19.29,7-.18-4.62-.15-9.31,.18-13.96Z"/>
      <path class="cls-1" d="M102.77,130.93c.26-2.54-.68-4.78-2.58-6.16-2.14-1.54-5.21-1.78-7.82-.61-2.58,1.16-4.22,3.44-4.51,6.26-1.17,11.41-1.68,22.92-1.56,34.43-20.22-3.08-40.48-3.95-60.27-2.58-2.78,.19-5.07,1.72-6.27,4.18-1.25,2.56-1.08,5.65,.42,7.88,1.35,2,3.61,3.05,6.2,2.87,20.14-1.4,40.12-.52,59.39,2.62,.36,.06,.71,.08,1.07,.09,1.69,28.48,7.3,56.78,16.67,83.65,.92,2.63,2.99,4.43,5.68,4.94,.51,.1,1.02,.14,1.53,.14,2.29,0,4.53-.96,5.96-2.62,1.58-1.83,2-4.29,1.14-6.75-14.46-41.44-19.52-84.62-15.04-128.34Z"/>
    </g>
  </g>
</svg>