<?xml version="1.0" encoding="UTF-8"?>
<svg id="Calque_2" data-name="Calque 2" xmlns="http://www.w3.org/2000/svg" viewBox="0 0 158.47 268.72">
  <defs>
    <style>
      .cls-1 {
        fill: #1e1f1d;
      }
    </style>
  </defs>
  <g id="CHIFFRE">
    <g id="_8" data-name="8">
      <path class="cls-1" d="M35,128.73c2.45,1.28,5.16,1.18,7.43-.26,2.39-1.52,3.85-4.25,3.73-6.97-.11-2.46-1.5-4.57-3.83-5.78-21.33-11.12-31.5-32.71-25.9-55,5.46-21.73,25.62-39.13,51.36-44.34,20.99-4.25,48.22,.94,61.73,22.11,11.42,17.89,7.17,40.91-11.36,61.56-8.44,9.4-18.23,17.24-29.12,23.31-4,2.23-8.22,3.79-12.69,5.44-1.53,.57-3.07,1.13-4.59,1.73-6.62,2.58-12.87,5.58-18.6,8.91-34.9,20.34-43.99,43.88-46.31,56.11-4.28,22.64,6.81,47.04,27.59,60.71,12.47,8.2,28.03,12.45,44.01,12.45,9.45,0,19.05-1.49,28.24-4.52,27.99-9.23,47.61-31.45,51.2-57.97,3.5-25.84-9.5-49.85-34.77-64.23-2.36-1.34-5-1.36-7.24-.04-2.41,1.41-3.96,4.11-3.94,6.88,.02,2.55,1.36,4.77,3.69,6.09,21.21,12.07,31.47,32.55,26.77,53.44-4.92,21.93-23.74,38.76-49.09,43.93-20.94,4.26-48.71-.44-63.54-20.55-7-9.49-10.15-20.88-8.66-31.27,1.4-9.75,6.52-19.46,15.21-28.86,8.57-9.26,19.27-17.09,31.82-23.27,4.38-2.16,8.98-3.99,13.43-5.77,7.3-2.91,14.85-5.93,21.82-10.48,13.83-9.04,38.16-28.42,45.74-56.67,6.06-22.58-2.81-46.76-22.6-61.6C107.68-.32,80.05-3.91,54.43,4.45,25.46,13.9,4.91,36.29,.79,62.87c-4.25,27.41,8.86,52.64,34.21,65.86Z"/>
    </g>
  </g>
</svg>