<?xml version="1.0" encoding="UTF-8"?>
<svg id="Calque_2" data-name="Calque 2" xmlns="http://www.w3.org/2000/svg" viewBox="0 0 141.58 268.63">
  <defs>
    <style>
      .cls-1 {
        fill: #1e1f1d;
      }
    </style>
  </defs>
  <g id="CHIFFRE">
    <g id="_9" data-name="9">
      <path class="cls-1" d="M119.56,37.75c-4.48-.65-8.78-.4-12.89,.51-6.58-13.3-16.76-24.2-28.92-30.88C62.89-.8,45.35-2.27,30.83,3.44,15.82,9.34,4.75,22.57,1.23,38.82c-3.11,14.38-.32,28.75,8.09,41.56,9.57,14.58,25.68,25.37,43.12,28.84,5.09,1.01,10.33,1.51,15.62,1.51,11.27,0,22.77-2.27,33.49-6.7,12.76-5.28,29.5-14.58,36.81-28.97,4.11-8.1,4.3-16.94,.5-24.25-3.66-7.05-10.7-11.81-19.3-13.06Zm-46.72,24.64c-1.79,2.22-2.22,5.01-1.2,7.66,1.03,2.67,3.38,4.66,5.97,5.06,2.31,.36,4.55-.57,6.15-2.56,3.76-4.67,8.69-10.24,14.5-14.36,2.41,9.38,3.02,19.19,3.4,29.2,0,.1,0,.19,.02,.29-1.45,.71-2.96,1.4-4.53,2.08-12.35,5.35-25.95,7.29-38.3,5.46-23.45-3.47-46.81-23.4-43.67-49.54,1.42-11.84,8.44-22.25,18.31-27.17,4.9-2.44,10.49-3.65,16.21-3.65,6.19,0,12.53,1.42,18.29,4.25,10.46,5.14,19.03,13.73,24.88,24.91-8.01,4.92-14.8,11.88-20.02,18.36Zm52.52-5.84c2.58,3.43,1.52,8.33-.33,11.77-1.95,3.63-4.91,7.07-8.85,10.33-.55-8.58-1.6-17.4-4.09-26.21,.33-.04,.66-.07,1-.09,2.03-.14,8.91-.27,12.28,4.21Z"/>
      <path class="cls-1" d="M110.14,121.34h-.07c-3.68,.03-7.39,2.56-7.35,7.32,.21,23.96-.38,43.88-1.86,62.7-1.22,15.49-2.7,29.31-8.54,41.6-5.14,10.82-13.55,17.49-25.01,19.83-10.31,2.1-21.78,.73-31.46-3.76-11.59-5.37-18.71-14.52-19.54-25.1-.22-2.79-1.78-5.08-4.27-6.27-2.57-1.23-5.66-1.04-7.86,.47-1.98,1.36-2.99,3.61-2.79,6.19,2.22,28.33,29.67,44.3,56.21,44.29,1.24,0,2.47-.04,3.7-.1,15.46-.88,28.54-6.87,36.81-16.87,11.13-13.47,14.57-31.42,16.46-47.2,3.08-25.65,3.3-51.61,3.09-75.83-.04-4.74-3.89-7.28-7.52-7.28Z"/>
    </g>
  </g>
</svg>