<?xml version="1.0" encoding="UTF-8"?>
<svg id="Calque_2" data-name="Calque 2" xmlns="http://www.w3.org/2000/svg" viewBox="0 0 247 350.44">
  <defs>
    <style>
      .cls-1 {
        fill: #1e1f1d;
      }
    </style>
  </defs>
  <g id="ACSENT">
    <g id="_Á" data-name="Á">
      <path class="cls-1" d="M239.12,275.94c-1.65-24.48-3.73-44.73-6.55-63.75-3.39-22.88-7.63-42.77-12.96-60.81-4.95-16.77-11.4-36.19-21.7-53.09-9.84-16.16-22.72-25.41-37.25-26.77-15.37-1.43-31.15,6.1-43.29,20.66-12.27,14.72-19.94,32.53-25.26,46.41-1,2.6-2,5.2-3,7.81-6.55,17.02-13.33,34.62-18.66,52.31-1.46,4.83-2.8,9.69-4.06,14.57-2.03-.73-4.04-1.46-6.04-2.18l-1.06-.38c.43-13.74-.63-25.68-3.15-35.52-1.8-7.04-6.76-19.3-19.73-22.3-10.27-2.38-21.34,1.23-28.88,9.42-6.89,7.48-9.25,17.42-6.32,26.58,6.4,19.97,26.73,27.01,44.67,33.22,2.33,.81,4.61,1.59,6.8,2.4,3.34,1.22,6.73,2.44,10.15,3.65-8.44,38.54-11.58,77.53-13.45,111.83-.15,2.66,.97,4.97,3.06,6.34,2.32,1.51,5.48,1.64,8.06,.34,2.46-1.25,3.96-3.58,4.11-6.4,1.76-32.38,4.69-69.96,12.73-107.19,15.63,5.03,31.99,9.32,49.15,11.41,7.79,.95,15.45,1.42,22.9,1.42,6.23,0,12.33-.33,18.24-1,14.91-1.68,28.99-6.02,41.98-10.47,2.68-.92,4.52-3.01,5.06-5.73,.56-2.84-.42-5.85-2.5-7.66-1.87-1.63-4.38-2.07-6.9-1.21-23.05,7.89-41.53,11.22-59.9,10.79-18.42-.43-38.1-4-60.17-10.93-1.46-.46-2.91-.94-4.37-1.42,4.47-17.19,10.45-33.43,16.77-50.54l.74-2c.87-2.35,1.73-4.71,2.59-7.07,5.42-14.86,11.02-30.23,19.24-44.08,5.95-10.02,15.58-23.75,30.42-27.25,16.59-3.91,27.68,8.69,32.81,16.55,9.42,14.43,15.42,31.72,20.49,48.26,5.2,16.96,9.37,35.44,12.74,56.52,3.13,19.56,5.42,41.04,7.21,67.59,1.43,21.16,3.04,45.15,8.15,68.52,.85,3.87,3.89,5.63,6.95,5.63,.57,0,1.15-.06,1.71-.19,3.76-.82,7.17-4.34,6.1-9.24-4.77-21.8-6.32-44.79-7.68-65.07ZM15.26,182.29c-.98-6.75,4.66-12.33,10.47-14.14,1.48-.46,2.89-.69,4.21-.69,1.67,0,3.21,.37,4.6,1.11,2.93,1.56,5.18,4.73,6.5,9.16,2.68,8.97,3.2,19.29,3.14,27.73-4.91-1.73-9.81-3.64-14.29-6.18-4.95-2.81-13.43-8.74-14.63-16.99Z"/>
      <path class="cls-1" d="M151.25,5.5c-3.3,12.64-12.26,22.89-24.58,28.11-2.36,1-3.88,2.9-4.17,5.22-.32,2.63,.98,5.46,3.32,7.23,1.45,1.1,3.11,1.65,4.8,1.65,1.06,0,2.12-.22,3.16-.66,15.75-6.67,27.78-20.72,32.18-37.57,1.23-4.72-1.94-8.28-5.56-9.22-3.62-.95-7.93,.55-9.16,5.23Z"/>
    </g>
  </g>
</svg>