<?xml version="1.0" encoding="UTF-8"?>
<svg id="Calque_2" data-name="Calque 2" xmlns="http://www.w3.org/2000/svg" viewBox="0 0 246.99 339.72">
  <defs>
    <style>
      .cls-1 {
        fill: #1e1f1d;
      }
    </style>
  </defs>
  <g id="ACSENT">
    <g id="_Â" data-name="Â">
      <path class="cls-1" d="M239.12,265.22c-1.65-24.48-3.73-44.74-6.55-63.75-3.39-22.88-7.63-42.77-12.96-60.81-4.95-16.77-11.4-36.19-21.7-53.09-9.84-16.16-22.72-25.41-37.25-26.77-15.38-1.44-31.15,6.1-43.29,20.66-12.27,14.72-19.94,32.53-25.26,46.41-1,2.6-2,5.21-3,7.81-6.55,17.02-13.33,34.61-18.65,52.3-1.46,4.83-2.8,9.69-4.06,14.57-2.02-.73-4.04-1.45-6.03-2.18l-1.06-.38c.43-13.74-.63-25.68-3.15-35.52-1.8-7.04-6.76-19.3-19.73-22.3-10.27-2.38-21.34,1.23-28.88,9.42-6.89,7.48-9.25,17.42-6.31,26.58,6.4,19.97,26.73,27.01,44.67,33.22,2.33,.81,4.61,1.59,6.8,2.4,3.34,1.22,6.73,2.44,10.15,3.65-8.44,38.54-11.58,77.53-13.45,111.83-.26,4.7,3.27,7.36,6.88,7.55,3.85,.21,8.08-2.27,8.35-7.28,1.76-32.38,4.69-69.96,12.73-107.19,15.63,5.03,31.99,9.32,49.15,11.41,7.8,.95,15.45,1.42,22.9,1.42,6.23,0,12.33-.33,18.24-1,14.91-1.68,28.99-6.02,41.98-10.47,2.68-.92,4.52-3.01,5.06-5.73,.56-2.84-.42-5.85-2.5-7.66-1.87-1.63-4.38-2.07-6.9-1.21-23.05,7.89-41.53,11.22-59.9,10.79-18.42-.43-38.1-4-60.17-10.93-1.46-.46-2.91-.94-4.37-1.42,4.47-17.19,10.45-33.42,16.77-50.52l.74-2.01c.87-2.36,1.73-4.72,2.59-7.07,5.42-14.86,11.02-30.23,19.24-44.07,5.95-10.02,15.58-23.75,30.42-27.25,16.59-3.91,27.68,8.69,32.81,16.55,9.43,14.44,15.42,31.73,20.49,48.26,5.2,16.95,9.37,35.44,12.74,56.52,3.13,19.56,5.42,41.04,7.21,67.59,1.43,21.17,3.04,45.16,8.15,68.52,.57,2.61,2.26,4.54,4.64,5.29,.73,.23,1.5,.35,2.28,.35,2.01,0,4.04-.76,5.58-2.17,2.04-1.85,2.86-4.5,2.25-7.26-4.77-21.8-6.32-44.79-7.68-65.07ZM15.26,171.56c-.98-6.75,4.66-12.33,10.47-14.14,1.48-.46,2.89-.69,4.21-.69,1.67,0,3.21,.37,4.6,1.11,2.93,1.56,5.18,4.73,6.5,9.16,2.68,8.97,3.2,19.29,3.14,27.73-4.91-1.72-9.81-3.64-14.29-6.18-4.95-2.81-13.43-8.74-14.63-16.99Z"/>
      <path class="cls-1" d="M109.21,46.56c2.16,.9,4.57,.52,6.62-1.05,7.06-5.4,14.04-10.59,20.73-15.42,3.49-2.52,7.03-5.03,10.53-7.48,.9-.63,1.81-1.3,2.73-1.99,2.56-1.91,5.21-3.88,7.89-4.91,3.87-1.49,9.41,5.33,12.72,9.41,.76,.94,1.46,1.79,2.07,2.48,5.34,6.05,10.48,12.77,15.28,19.99,1.47,2.21,3.75,3.45,6.31,3.45,.17,0,.34,0,.51-.02,2.89-.18,5.55-1.9,6.77-4.37,1.1-2.23,.89-4.78-.59-7-5.55-8.34-11.56-16.16-17.87-23.25-.64-.72-1.3-1.48-1.98-2.27C175.68,8.02,169.13,.44,160.35,.02c-8.5-.42-15.96,5.32-22.55,10.37-1.42,1.09-2.76,2.11-4.04,3.02-8.54,6.06-17.33,12.55-26.13,19.28-2.33,1.78-3.44,4.47-3.06,7.4,.38,2.91,2.2,5.44,4.65,6.46Z"/>
    </g>
  </g>
</svg>