<?xml version="1.0" encoding="UTF-8"?>
<svg id="Calque_2" data-name="Calque 2" xmlns="http://www.w3.org/2000/svg" viewBox="0 0 247 330.45">
  <defs>
    <style>
      .cls-1 {
        fill: #1e1f1d;
      }
    </style>
  </defs>
  <g id="ACSENT">
    <g id="_Ä" data-name="Ä">
      <g>
        <path class="cls-1" d="M134.83,1.03c-10.16-3.83-16.43,3.69-20.09,11.95,0,0,0,.01-.01,.02-8.38,12.06,22.7,29.36,29.93,11.42,3.46-8.6-1.02-20.07-9.83-23.39Zm-10.87,16.18s0,.02,0,.04c0,0,0,0-.01,0,0,0,0-.02,.01-.03Zm11.23,3.47c-1.53,2.85-4.77,1.05-6.6,.01-1.29-.73-2.59-1.52-3.7-2.52-.23-.21-.53-.61-.83-.87,.19-.41,.32-.82,.38-1.22,1.27-3.07,3.17-7.06,7.03-5.38,3.07,1.33,5.41,6.85,3.72,9.98Z"/>
        <path class="cls-1" d="M184.26,1.03c-10.16-3.83-16.43,3.69-20.09,11.95,0,0,0,.01-.01,.02-8.38,12.06,22.7,29.36,29.93,11.42,3.46-8.6-1.02-20.07-9.83-23.39Zm-10.87,16.18s0,.02,0,.03c0,0,0,0-.01,0,0,0,0-.02,.01-.03Zm11.23,3.47c-1.53,2.85-4.76,1.05-6.6,.01-1.29-.73-2.59-1.52-3.7-2.52-.23-.21-.53-.61-.83-.87,.19-.41,.32-.82,.38-1.22,1.27-3.07,3.17-7.06,7.03-5.38,3.07,1.33,5.41,6.85,3.72,9.98Z"/>
      </g>
      <path class="cls-1" d="M239.12,255.95c-1.65-24.48-3.73-44.73-6.55-63.75-3.39-22.88-7.63-42.77-12.96-60.81-4.95-16.77-11.4-36.19-21.7-53.09-9.84-16.15-22.72-25.41-37.25-26.77-15.38-1.44-31.15,6.09-43.29,20.66-12.27,14.72-19.94,32.53-25.26,46.41-1,2.6-2,5.2-3,7.81-6.55,17.02-13.33,34.61-18.66,52.31-1.46,4.83-2.8,9.69-4.06,14.57-2.03-.73-4.04-1.46-6.04-2.18l-1.06-.38c.43-13.74-.63-25.68-3.15-35.52-1.8-7.04-6.76-19.3-19.73-22.3-10.27-2.38-21.34,1.23-28.88,9.42-6.89,7.48-9.25,17.42-6.32,26.58,6.4,19.98,26.74,27.01,44.68,33.22,2.33,.8,4.61,1.59,6.8,2.39,3.34,1.22,6.73,2.44,10.15,3.65-8.44,38.54-11.58,77.53-13.45,111.83-.15,2.66,.97,4.97,3.06,6.34,2.32,1.51,5.48,1.64,8.06,.34,2.46-1.25,3.96-3.58,4.11-6.4,1.76-32.38,4.69-69.96,12.73-107.19,15.63,5.03,31.99,9.32,49.15,11.41,7.8,.95,15.45,1.42,22.9,1.42,6.23,0,12.33-.33,18.24-1,14.91-1.67,28.99-6.02,41.98-10.47,2.68-.92,4.52-3.01,5.06-5.73,.56-2.84-.42-5.85-2.5-7.66-1.87-1.63-4.39-2.07-6.9-1.21-23.05,7.89-41.53,11.21-59.9,10.79-18.42-.43-38.1-4-60.17-10.93-1.46-.46-2.91-.94-4.37-1.42,4.47-17.2,10.45-33.43,16.78-50.55l.74-1.99c.87-2.35,1.73-4.71,2.59-7.07,5.42-14.86,11.02-30.23,19.24-44.08,5.95-10.02,15.58-23.75,30.42-27.25,16.59-3.91,27.68,8.69,32.81,16.55,9.42,14.43,15.42,31.72,20.49,48.26,5.2,16.96,9.37,35.44,12.74,56.52,3.13,19.56,5.42,41.04,7.21,67.59,1.43,21.16,3.04,45.15,8.15,68.52,.85,3.87,3.89,5.63,6.95,5.63,.58,0,1.15-.06,1.71-.19,3.76-.82,7.17-4.34,6.1-9.24-4.77-21.8-6.32-44.79-7.68-65.07ZM15.26,162.3c-.98-6.75,4.66-12.33,10.47-14.14,1.48-.46,2.89-.69,4.21-.69,1.67,0,3.21,.37,4.6,1.11,2.93,1.56,5.18,4.73,6.5,9.16,2.68,8.97,3.2,19.29,3.14,27.73-4.91-1.73-9.81-3.64-14.29-6.18-4.95-2.81-13.43-8.74-14.63-16.99Z"/>
    </g>
  </g>
</svg>