<?xml version="1.0" encoding="UTF-8"?>
<svg id="Calque_2" data-name="Calque 2" xmlns="http://www.w3.org/2000/svg" viewBox="0 0 238.15 269.06">
  <defs>
    <style>
      .cls-1 {
        fill: #1e1f1d;
      }
    </style>
  </defs>
  <g id="MAJ">
    <g id="A">
      <path class="cls-1" d="M44.3,145.44c2.24,.78,4.44,1.54,6.55,2.31,3.2,1.17,6.44,2.34,9.71,3.49-8.12,37.11-11.15,74.64-12.95,107.68-.14,2.6,.95,4.86,2.99,6.19,2.26,1.47,5.34,1.6,7.86,.33,2.4-1.22,3.86-3.49,4.01-6.25,1.7-31.17,4.52-67.33,12.25-103.16,15.04,4.84,30.77,8.96,47.27,10.96,7.51,.91,14.89,1.37,22.08,1.37,6.01,0,11.88-.32,17.59-.96,14.37-1.62,27.94-5.8,40.47-10.09,4.65-1.59,5.86-6.25,4.64-9.82-1.32-3.87-5.06-5.73-8.88-4.42-22.2,7.6-39.99,10.8-57.68,10.39-17.74-.41-36.69-3.85-57.94-10.52-1.37-.43-2.75-.89-4.13-1.34,4.31-16.53,10.05-32.14,16.13-48.59l.71-1.93c.84-2.27,1.67-4.55,2.5-6.82,5.22-14.31,10.61-29.11,18.53-42.44,5.73-9.64,14.99-22.85,29.25-26.21,15.93-3.75,26.58,8.35,31.51,15.9,9.07,13.9,14.84,30.55,19.73,46.47,5.01,16.33,9.02,34.14,12.27,54.44,3.02,18.84,5.22,39.53,6.95,65.11,1.37,20.39,2.93,43.51,7.85,66.03,.83,3.78,3.8,5.5,6.78,5.5,.56,0,1.12-.06,1.67-.18,3.66-.8,6.99-4.23,5.95-9.01-4.59-21-6.08-43.14-7.4-62.67-1.59-23.59-3.59-43.11-6.31-61.42-3.27-22.05-7.35-41.21-12.49-58.6-4.77-16.16-10.99-34.87-20.91-51.17C181.35,10.41,168.92,1.48,154.89,.17c-14.85-1.39-30.07,5.88-41.79,19.94-11.83,14.19-19.22,31.36-24.35,44.74-.96,2.51-1.93,5.02-2.9,7.53-6.31,16.39-12.84,33.35-17.97,50.39-1.39,4.62-2.66,9.28-3.87,13.95-1.92-.69-3.82-1.38-5.71-2.06l-.98-.36c.41-13.22-.62-24.71-3.04-34.18-1.74-6.8-6.54-18.65-19.07-21.55-9.93-2.3-20.62,1.19-27.91,9.11C.64,94.91-1.64,104.51,1.2,113.37c6.18,19.29,25.79,26.08,43.1,32.06ZM14.89,106.96c-.94-6.46,4.46-11.79,10.02-13.52,1.42-.44,2.76-.66,4.03-.66,1.6,0,3.06,.35,4.39,1.06,2.8,1.49,4.95,4.52,6.22,8.77,2.56,8.59,3.08,18.46,3.02,26.56-4.68-1.65-9.35-3.48-13.63-5.9-4.75-2.69-12.9-8.4-14.05-16.3Z"/>
    </g>
  </g>
</svg>