<?xml version="1.0" encoding="UTF-8"?>
<svg id="Calque_2" data-name="Calque 2" xmlns="http://www.w3.org/2000/svg" viewBox="0 0 467.35 289.06">
  <defs>
    <style>
      .cls-1 {
        fill: #1e1f1d;
      }
    </style>
  </defs>
  <g id="ACSENT">
    <g id="AE">
      <path class="cls-1" d="M314.64,53.34c.04,2.02,.09,4.1,.09,6.1v40.48c0,2.33,.87,4.12,2.19,5.36,1.25,1.35,3.06,2.25,5.43,2.25s4.12-.87,5.36-2.19c1.35-1.25,2.25-3.06,2.25-5.43v-35.92c0-2.21-.05-4.5-.1-6.72-.32-14.02-.66-28.51,11.4-36.99,7.7-5.42,17.63-5.19,27.23-4.98,1.9,.04,3.78,.08,5.63,.08h85.78c4.89,0,7.45-3.83,7.45-7.62,0-1.94-.65-3.77-1.84-5.15-1.37-1.59-3.36-2.47-5.61-2.47h-83.89c-2.04,0-4.09-.04-6.17-.08-10.75-.2-21.87-.41-31.93,4.53-11.78,5.78-20.43,17.45-22.57,30.46-.99,6.02-.85,12.25-.72,18.27Z"/>
      <path class="cls-1" d="M359.25,289.06h100.66c4.89,0,7.45-3.83,7.45-7.62s-2.56-7.62-7.45-7.62h-94.9c-9.32,0-18.12,0-25.51-6.27-10-8.47-9.8-20.66-9.59-33.55,.03-1.8,.06-3.59,.06-5.36,0-4.89-3.83-7.45-7.62-7.45s-7.62,2.56-7.62,7.45c0,1.88-.03,3.78-.06,5.68-.19,11.93-.38,24.28,6.5,35.09,8.06,12.67,21.58,19.64,38.08,19.64Z"/>
      <path class="cls-1" d="M246.82,269.8c-4.74-21.68-6.28-44.23-7.77-66.03-.82-12.08-1.68-24.58-3.06-36.83-.57-4.99-5.09-7.51-9.12-7.05-4.04,.46-6.54,3.59-6.08,7.61,1.4,12.4,2.28,25.11,3.13,37.39,1.57,22.62,3.18,46.01,8.15,68.7,.85,3.87,3.89,5.63,6.95,5.63,.58,0,1.15-.06,1.71-.19,3.76-.82,7.17-4.34,6.1-9.24Z"/>
      <path class="cls-1" d="M263.94,173.23c-.6,12.44,7.14,24.8,21.25,33.91,10.3,6.65,21.38,10.13,31.73,10.13,3.99,0,7.88-.52,11.57-1.57,13.72-3.92,24.38-15.01,26.52-27.61,2.57-15.16-5.86-27.64-14.29-38.69,23.05-.79,46.12-.74,67.98-.6,5.65,.03,11.3,.08,16.94,.15,2.7,0,5.06-1.24,6.38-3.47,1.44-2.43,1.47-5.61,.07-8.09-1.3-2.31-3.63-3.65-6.39-3.68-24.8-.27-51.5-.41-78.73,.29-2.65,.07-5.36,.11-8.13,.15-3.3,.05-6.68,.1-10.09,.2-2.2-2.66-4.4-5.28-6.58-7.87-4.49-5.34-9.12-10.86-13.5-16.43-7.98-10.13-17.75-20.98-32.79-21.42-12.28-.36-25.72,5.99-35.93,16.99-4.97,5.36-9.1,11.41-13.1,17.26-4.34,6.36-8.84,12.94-14.31,18.41-7.63,7.64-17.63,13.1-29.72,16.23-19.6,5.08-42.46,4.4-71.94-2.14-9.3-2.06-19-4.74-29.79-8.25,4.15-15.67,9.37-31.7,15.73-48.4,1.68-4.4,3.32-8.97,4.91-13.39,7.11-19.81,14.47-40.28,28.44-55.9,7.94-8.87,16.55-13.59,25.58-14.02,11.19-.52,19.26,6.35,24.07,12.22,7.98,9.74,13.04,22.19,17.94,35.16,5.39,14.25,9.89,29.71,13.78,47.26,.58,2.61,2.28,4.54,4.67,5.29,2.64,.83,5.73,.11,7.86-1.84,2.03-1.86,2.84-4.5,2.23-7.26-3.72-16.79-7.99-31.65-13.05-45.43-4.59-12.49-9.72-25.65-17.5-37.16-7.7-11.39-16.74-18.73-26.86-21.82-11.25-3.43-24.53-1.52-35.54,5.11-22.35,13.47-33.81,40.43-42.79,64.64l-1.9,5.11c-7.89,21.23-15.98,43.02-22.08,65.46-.22-.08-.44-.15-.66-.23-2.14-.77-4.37-1.52-6.6-2.24,.23-8.09-.45-16.17-1.22-23.72-.71-6.95-1.85-14.33-5.4-21.16-6.09-11.74-19.43-16.71-32.44-12.09C6.83,87.49-1.59,100.26,.25,113.08c1.75,12.21,11.42,23.33,26.53,30.5,10.57,5.02,22.01,8.82,33.06,12.5,1.01,.34,2,.68,3.01,1.01-.41,1.82-.8,3.64-1.18,5.46-7.78,37.82-10.63,76.64-12.24,106.23-.26,4.7,3.27,7.36,6.88,7.55,.15,0,.3,.01,.45,.01,3.72,0,7.64-2.48,7.9-7.29,1.41-25.94,3.58-56.67,8.96-87.85,1.1-6.38,2.38-12.78,3.84-19.24,12.09,3.9,23.31,6.91,34.08,9.12,29.32,6.02,52.61,6.54,73.3,1.63,12.35-2.93,23.24-8.06,32.37-15.25,9.05-7.13,15.53-16.51,21.79-25.57,1.65-2.39,3.36-4.86,5.07-7.24,9.76-13.49,19.52-20.29,29.84-20.79,10.76-.52,18.12,9.2,24.62,17.77,.89,1.17,1.76,2.32,2.61,3.41,2.83,3.61,5.76,7.18,8.69,10.68-10.42,1.41-20.54,4.18-29.27,9.75-10.18,6.49-16.09,16.35-16.64,27.74Zm69.88,22.69c-10.55,9.36-25.87,6.44-36.69,.58-6.58-3.56-21.43-13.37-17.16-27.54,4.62-15.31,26.19-17.88,41.98-18.75,3.01,3.67,5.98,7.41,8.8,11.21,11.19,15.1,12.19,26.38,3.06,34.48ZM15.17,109.86c-.26-5.57,4.13-10.13,8.6-12.17,1.83-.84,4.17-1.47,6.51-1.47,2.14,0,4.29,.53,6.04,1.9,5.09,3.98,6.05,13.34,6.56,18.36,.6,5.83,1.13,11.98,1.22,18.16-7.03-2.57-13.77-5.61-19.37-9.93-3.44-2.66-9.27-8.12-9.58-14.85Z"/>
    </g>
  </g>
</svg>