<?xml version="1.0" encoding="UTF-8"?>
<svg id="Calque_2" data-name="Calque 2" xmlns="http://www.w3.org/2000/svg" viewBox="0 0 281.42 299.15">
  <defs>
    <style>
      .cls-1 {
        fill: #1e1f1d;
      }
    </style>
  </defs>
  <g id="Calque_1-2" data-name="Calque 1">
    <path id="_" data-name="@" class="cls-1" d="M275.21,188.27c-4.15-.5-8.81,2.06-9.42,7.19-2.5,20.94-17.41,50.73-74.25,73.77-72.5,29.37-117.48,6.76-133.45-4.33-32.15-22.31-45.77-62.34-41.64-122.37,2.07-30.04,6.61-53.2,14.28-72.86,8.36-21.42,23.12-36.73,42.66-44.26,22.91-8.83,48.67-9.74,66.02-9.65,20.4,.1,36.99,4.31,50.7,12.89,17.11,10.7,30.35,26.18,38.29,44.77,7.2,16.87,11.18,36.44,12.16,59.87,.84,20.21,1.72,41.11-2.46,60.5-1.32,6.14-3.35,12.87-8.33,16.3-2.8,1.92-6.34,2.66-9.02,1.88-1.84-.54-3.18-1.75-3.96-3.6-2.12-5.01-2.37-11.15-2.61-17.08-.07-1.81-.15-3.69-.28-5.47-1.07-14.53-2.27-26.62-3.78-38.04-3.77-28.61-9.31-51.55-17.41-72.19-5.86-14.93-15.68-39.91-37.96-43.54-17.62-2.88-35.08,7.65-46.7,28.14-4.5,7.94-7.85,16.51-11.08,24.79l-.93,2.38c-4.01,10.23-9.18,23.76-13.61,37.7-1.57,4.94-3.06,10.09-4.44,15.35-.75-.27-1.51-.54-2.26-.81,.38-13.38,.34-40.42-19.1-45.09-8.4-2.02-17.53,.84-23.84,7.46-5.89,6.18-8.05,14.49-5.79,22.21,4.84,16.53,22.07,22.55,35.92,27.38,1.26,.44,2.51,.87,3.72,1.31,2.57,.92,5.14,1.84,7.71,2.74-3.12,14.48-5.49,29.69-7.23,46.4-1.17,11.25-2.1,23.5-2.92,38.54-.26,4.81,3.34,7.53,7.04,7.73,3.93,.21,8.28-2.33,8.56-7.46,1.32-24.14,3.47-52.43,9.33-80.26,13.38,4.21,24.67,6.82,35.33,8.18,11.58,1.47,22.69,1.62,33.02,.45,11.83-1.35,22.72-4.7,32.73-8.13,3.07-1.05,4.72-3.38,5.19-5.89,.83,6.91,1.56,14.22,2.22,22.01,.25,3.01,.42,6.14,.59,9.16,.39,7.06,.79,14.36,2.24,21.41,1.98,9.66,7.09,16.36,14.38,18.87,6.99,2.4,13.96,1.86,20.16-1.57,10.05-5.56,15.88-17.2,17.98-26.23,4.82-20.71,4.03-42.72,3.27-64v-.31c-.91-25.2-5.05-46.49-12.67-65.1-8.41-20.53-21.87-37.53-40.02-50.52C188.2,7.89,169.77,1.69,148.78,.44c-17.87-1.06-44.68-.71-70.98,7.03-24.47,7.2-42.74,21.09-54.29,41.27C10.87,70.82,6.16,96.59,2.95,121.16c-8.48,64.94,1.27,111.48,29.82,142.29,21.63,23.35,53.79,35.7,90.43,35.69,14.49,0,29.69-1.93,45.2-5.88,21.71-5.52,42.85-14.44,61.12-25.78,20.24-12.56,34.78-27.07,43.22-43.14,4.57-8.69,7.39-17.94,8.62-28.29,.49-4.09-2.04-7.3-6.15-7.79ZM43.9,112.71c1.94-2.02,4.49-3.17,6.9-3.17,.42,0,.83,.03,1.23,.1,2.23,.39,3.96,1.81,5,4.12,2.61,5.79,3.15,13.56,3.16,20.4-3.76-1.41-7.53-3.1-10.85-5.43-3.25-2.27-7.18-6.39-7.58-10.5-.2-2.03,.5-3.84,2.13-5.54Zm141.87,33.39c-9.81,3.36-18.69,6.23-27.99,7.42-8.71,1.11-18.22,1.16-28.26,.17-11.06-1.1-22.49-3.65-36.8-8.24,5.01-19.05,12.04-39.1,22.64-64.59,10.47-25.18,23.14-36.38,37.63-33.29,8.85,1.89,14.56,10.96,18.09,17.63,5.1,9.62,9.44,20.86,13.66,35.39,4.31,14.82,7.53,30.64,9.98,49.33-1.44-3.06-4.8-5.23-8.97-3.8Z"/>
  </g>
</svg>