<?xml version="1.0" encoding="UTF-8"?>
<svg id="Calque_2" data-name="Calque 2" xmlns="http://www.w3.org/2000/svg" viewBox="0 0 177.72 278.78">
  <defs>
    <style>
      .cls-1 {
        fill: #1e1f1d;
      }
    </style>
  </defs>
  <g id="MAJ">
    <path id="B" class="cls-1" d="M8.1,97.95c1.05,2.64,2.14,5.37,3.06,8.07,2.65,7.73,4.43,16.05,6.16,24.1l.78,3.6c1.74,8,3.76,18.56,3.96,29.25,.19,10.35-1.83,20.14-3.84,28.35-4.6,18.84-7.94,34.65-5.66,52.19,1.85,14.22,7.98,23.75,18.21,28.32,9.92,4.43,22.02,4.97,32.69,5.45,2.33,.1,4.61,.21,6.83,.35l1.56,.1c8.34,.53,16.77,1.06,25.11,1.06,19.87,0,39.25-3.02,55.83-16.3,11.7-9.38,19.94-22.73,22.6-36.63,3.69-19.27,3-38.43-1.93-53.93-4.4-13.82-12.82-25.08-27.31-36.48-6.77-5.33-12.77-10.84-18.33-16.86-5.62-6.08-12.49-12.81-20.74-16.72-9.74-4.61-23.3-3.89-31.54,1.66-5.89,3.97-8.78,9.94-8.35,17.27,.34,5.82,2.91,10.9,7.65,15.08,8.76,7.74,23.24,10.58,33,9.94,7.08-.46,13.85-2.45,20.18-5.93,2.31,1.98,4.69,3.83,7.03,5.65,1.51,1.18,3.03,2.36,4.52,3.57,11.24,9.12,17.88,19.1,20.87,31.42,3.45,14.18,3.4,30.88-.12,44.69-2.82,11.07-9.75,20.93-19.49,27.77-18.62,13.06-41.95,11.58-64.51,10.15-1.47-.09-2.94-.19-4.39-.28-2.24-.14-4.55-.23-6.89-.33-8.95-.38-18.2-.77-26.16-3.43-6.94-2.33-10.56-7.98-11.73-18.32-1.8-15.91,1.89-31.02,5.46-45.64,4.26-17.43,5.15-33.14,2.8-49.42-2.89-20.03-6.9-36.4-12.28-50.05l-.32-.82c-2.79-7.07-5.42-13.75-6.25-21.07-1.1-9.66-1.52-17.56-1.32-24.87l.04-1.53c.2-8.51,.46-19.11,6.61-24.49,5.55-4.86,14.7-5.37,22.77-5.81,1.62-.09,3.19-.18,4.68-.3,14.93-1.18,27.2-1.74,38.62-1.75,10.79,.03,22.24,.67,32.77,5.66,11.12,5.28,19.74,13.45,24.92,23.62,5.81,11.4,6.21,24.7,1.26,41.86-2.28,7.89-5.33,15.22-9.07,21.78-1.34,2.34-1.35,4.97-.05,7.2,1.39,2.38,4.06,3.92,6.8,3.92h.04c2.54-.01,4.75-1.35,6.07-3.67,10.62-18.63,15.89-38.8,14.46-55.35-1.28-14.88-7.93-28.89-18.73-39.44C135.81,10.26,121.76,3.37,106.82,1.21c-13-1.88-26.38-1.18-39.32-.5l-1.81,.09c-7.34,.38-14.56,.88-21.47,1.49-.86,.08-1.73,.15-2.6,.22-5.46,.45-11.09,.92-16.5,2.43C13.05,8.34,4.91,17.15,2.23,29.76c-3.03,14.26-2.97,31.15,.18,50.18,1.05,6.36,3.41,12.28,5.69,18.01Zm76.95,26.89c-2.18-1.89-3.09-4.07-2.55-6.14,.64-2.45,3.13-4.39,6.5-5.08,1.08-.22,2.18-.33,3.28-.33,4.71,0,9.6,2.03,14.85,6.15,3.51,2.75,6.55,5.89,9.67,9.22-12.33,4.79-24.86,2.17-31.75-3.81Z"/>
  </g>
</svg>