<?xml version="1.0" encoding="UTF-8"?>
<svg id="Calque_2" data-name="Calque 2" xmlns="http://www.w3.org/2000/svg" viewBox="0 0 291.76 359.54">
  <defs>
    <style>
      .cls-1 {
        fill: #1e1f1d;
      }
    </style>
  </defs>
  <g id="ACSENT">
    <g id="_Ç" data-name="Ç">
      <path class="cls-1" d="M20.15,167.05c15.15,5.59,31.32,.18,44.13-6.32-.1,1.18-.35,2.4-.6,3.71-.12,.58-.23,1.17-.34,1.77-1.66,9.35-3.08,19.41-2.15,29.54,2.93,31.98,25.6,62.03,59.15,78.41,15.65,7.64,32.6,12.37,49.81,14.06-1.57,7.49-1.76,13.97-.68,20.71,.29,1.85,1.42,3.47,3.16,4.57,1.93,1.22,4.29,1.6,6.31,1.01,8.62-2.53,14.61-1.75,17.83,2.32,2.62,3.31,3.8,8.65,3.16,14.26-.7,6.22-3.94,10.96-8.66,12.67-4.79,1.74-9.8-1.03-15.3-8.47-1.73-2.33-4.37-3.49-7.25-3.16-2.91,.33-5.48,2.13-6.54,4.58-.95,2.18-.61,4.63,.94,6.71,7.99,10.8,16.25,16.11,25.12,16.11,1.41,0,2.84-.13,4.29-.4,11.12-2.06,20-11.55,22.1-23.62,1.92-11.02-.41-21.45-6.37-28.63-5.56-6.69-14.14-9.73-24.28-8.83,.2-2.91,.78-5.87,1.63-9.14,8.29-.07,16.58-.84,24.73-2.34,39.56-7.31,69.72-33.63,76.85-67.04,1.05-4.92-2.4-8.44-6.18-9.24-3.53-.75-7.61,.89-8.58,5.48-4.92,23.09-25.79,50.1-69.61,56.67-30.95,4.64-64.53-2.89-89.81-20.14-14.87-10.15-25.94-23.65-32-39.04-3.76-9.55-5.34-19.49-4.69-29.54,.33-5.05,1.15-10.09,1.83-13.91,.13-.71,.26-1.41,.4-2.12,.67-3.48,1.37-7.09,.88-10.94-2.12-16.68-19.82-26.61-30.18-31.05-14.32-6.13-28.71-6.59-38.48-1.23-7.92,4.35-12.09,13.15-10.38,21.89,2.09,10.64,11.58,17.66,19.77,20.68Zm5.06-14.35c-3.92-1.45-8.65-5.07-9.8-8.64-.51-1.58-.29-3.05,.69-4.49,1.56-2.31,4.98-3.45,10.41-3.45,.69,0,1.41,.02,2.16,.05,9.77,.47,20.14,4.75,27.93,11.38-10.17,5.09-21.57,8.77-31.39,5.14Z"/>
      <path class="cls-1" d="M257.54,20.1C241.68,9.17,221.39,2.2,200.4,.48c-40.81-3.35-82.24,10.97-108.11,37.38-21.05,21.49-27.71,49.29-29.59,68.82-.39,4.08,2.21,7.21,6.32,7.6,.26,.03,.53,.04,.79,.04,3.77,0,7.66-2.54,8.1-7.16,2.06-21.45,9.74-40.87,21.62-54.68,10.24-11.9,24.45-21.62,41.09-28.09,33.95-13.2,71.01-12.33,99.14,2.32,19.41,10.11,32.92,27.05,37.06,46.47,.55,2.6,2.23,4.53,4.6,5.3,2.63,.85,5.71,.15,7.86-1.79,2.06-1.85,2.9-4.51,2.31-7.28-4.23-19.84-16-36.9-34.04-49.33Z"/>
    </g>
  </g>
</svg>