<?xml version="1.0" encoding="UTF-8"?>
<svg id="Calque_2" data-name="Calque 2" xmlns="http://www.w3.org/2000/svg" viewBox="0 0 281.28 278.55">
  <defs>
    <style>
      .cls-1 {
        fill: #1e1f1d;
      }
    </style>
  </defs>
  <g id="MAJ">
    <g id="C">
      <path class="cls-1" d="M19.47,161.12c14.57,5.37,30.11,.22,42.45-6.02-.11,1.08-.33,2.2-.56,3.4-.11,.56-.22,1.13-.32,1.7-1.61,9.02-2.97,18.71-2.07,28.48,2.83,30.84,24.68,59.82,57.04,75.62,19.25,9.4,40.54,14.25,61.79,14.25,8.37,0,16.73-.75,24.96-2.27,38.15-7.05,67.24-32.43,74.11-64.66,.58-2.7-.25-5.29-2.25-7.1-2.1-1.89-5.1-2.57-7.66-1.74-2.31,.75-3.94,2.64-4.49,5.18-4.74,22.22-24.82,48.21-66.99,54.53-29.8,4.47-62.12-2.78-86.47-19.39-14.31-9.76-24.96-22.75-30.79-37.57-3.62-9.19-5.13-18.75-4.51-28.43,.31-4.86,1.11-9.71,1.77-13.4,.12-.68,.25-1.37,.38-2.04,.65-3.36,1.32-6.84,.85-10.56-2.05-16.11-19.13-25.7-29.13-29.98-19.93-8.53-32.62-3.67-37.15-1.18-7.67,4.21-11.71,12.72-10.04,21.19,2.02,10.29,11.19,17.08,19.1,19.99Zm4.94-14c-3.75-1.39-8.29-4.86-9.39-8.26-.49-1.52-.28-2.87,.65-4.25,1.48-2.2,4.75-3.28,9.95-3.28,.66,0,1.36,.02,2.09,.05,9.35,.45,19.27,4.53,26.75,10.86-9.75,4.86-20.66,8.36-30.05,4.89Z"/>
      <path class="cls-1" d="M66.57,110.29c.26,.02,.51,.04,.77,.04,3.67,0,7.46-2.47,7.9-6.98,1.99-20.65,9.38-39.34,20.8-52.63,9.85-11.46,23.53-20.81,39.55-27.04,32.68-12.7,68.36-11.87,95.44,2.23,18.68,9.73,31.68,26.02,35.66,44.71,.54,2.54,2.18,4.43,4.49,5.18,2.56,.83,5.57,.15,7.67-1.74,2.01-1.81,2.83-4.4,2.25-7.1-4.08-19.14-15.43-35.6-32.83-47.58C232.97,8.84,213.41,2.12,193.17,.46c-39.34-3.23-79.29,10.58-104.23,36.04-20.3,20.72-26.73,47.52-28.54,66.36-.38,3.98,2.15,7.04,6.17,7.42Z"/>
    </g>
  </g>
</svg>