<?xml version="1.0" encoding="UTF-8"?>
<svg id="Calque_2" data-name="Calque 2" xmlns="http://www.w3.org/2000/svg" viewBox="0 0 216.46 278.53">
  <defs>
    <style>
      .cls-1 {
        fill: #1e1f1d;
      }
    </style>
  </defs>
  <g id="MAJ">
    <g id="D">
      <path class="cls-1" d="M36.15,174.6c-3.58,27.04-8.92,51.79-16.33,75.67-.78,2.52-.26,5.01,1.43,6.84,1.46,1.58,3.62,2.47,5.8,2.47,.58,0,1.17-.06,1.74-.19,2.57-.58,4.51-2.41,5.32-5.01,8.02-25.82,13.73-53.23,17.47-83.78,1.52-12.42,2.24-25.6-2.77-37.9-.72-1.77-1.58-3.52-2.57-5.18,.04-.28,.08-.55,.12-.82,.29-1.91,.56-3.71,.85-5.35,5.14-29.15,3.31-60.89-5.6-97.05-1.12-4.54-5.26-6.05-8.77-5.18-3.57,.88-6.75,4.33-5.6,9,6.13,24.9,8.66,47.41,7.73,68.81-.27,6.2-1.02,12.2-1.96,18.29-3.88-1.61-8.22-2.04-12.86-.76C8.49,117.68-.72,130.82,.04,143.16c.82,13.31,11.42,21.43,20.88,21.43,.09,0,.18,0,.27,0,7.88-.13,13.13-3.92,16.74-9.37-.02,6.05-.83,12.21-1.64,18.23l-.15,1.16Zm-19.33-27.24c-1.98-2.52-2.4-6.11-1.14-9.85,1.45-4.33,4.75-7.74,8.4-8.71,.59-.15,1.15-.23,1.71-.23,1.13,0,2.19,.32,3.22,.98,.5,.32,.99,.71,1.45,1.16-.73,4.66-1.55,9.42-3.43,13.54-1.35,2.94-3.73,5.09-5.94,5.36-1.51,.18-2.95-.57-4.26-2.24Z"/>
      <path class="cls-1" d="M58.63,278.53h.04c30.76-.12,61.96-8.56,87.84-23.77,27.87-16.37,48.73-39.72,60.32-67.53,11.4-27.34,12.73-57.83,3.75-85.84-8.74-27.24-26.58-51.32-51.6-69.64C131.2,11.42,95.58,.15,58.67,0h-.03c-2.66,0-4.92,1.26-6.2,3.45-1.39,2.39-1.4,5.48-.03,7.89,1.28,2.23,3.55,3.52,6.23,3.53,27.86,.11,56.13,7.65,79.62,21.23,25.28,14.61,44.18,35.46,54.67,60.3,10.24,24.26,11.44,51.46,3.37,76.59-7.72,24.05-24.14,46.05-46.24,61.95-25.94,18.66-57.55,28.6-91.41,28.73-4.73,.02-7.27,3.87-7.25,7.49,.01,3.67,2.5,7.38,7.24,7.38Z"/>
    </g>
  </g>
</svg>