<?xml version="1.0" encoding="UTF-8"?>
<svg id="Calque_2" data-name="Calque 2" xmlns="http://www.w3.org/2000/svg" viewBox="0 0 203.45 355.4">
  <defs>
    <style>
      .cls-1 {
        fill: #1e1f1d;
      }
    </style>
  </defs>
  <g id="ACSENT">
    <g id="_É" data-name="É">
      <path class="cls-1" d="M196.01,66.49H112.12c-2.04,0-4.1-.04-6.17-.08-10.75-.2-21.87-.41-31.93,4.53-11.78,5.78-20.43,17.45-22.57,30.47-.99,6.02-.85,12.25-.72,18.27,.05,2.02,.09,4.1,.09,6.1v40.48c0,2.33,.88,4.13,2.2,5.37,1.25,1.35,3.06,2.24,5.42,2.24s4.11-.87,5.36-2.19c1.36-1.25,2.26-3.06,2.26-5.43v-35.92c0-2.21-.05-4.5-.1-6.72-.32-14.02-.66-28.51,11.4-36.99,7.7-5.42,17.63-5.2,27.23-4.98,1.9,.04,3.78,.08,5.63,.08h85.78c4.89,0,7.45-3.83,7.45-7.62s-2.56-7.62-7.45-7.62Z"/>
      <path class="cls-1" d="M196.01,340.16H101.11c-9.32,0-18.12,0-25.51-6.27-10-8.47-9.8-20.66-9.59-33.55,.03-1.8,.06-3.59,.06-5.36,0-4.89-3.83-7.45-7.62-7.45s-7.62,2.56-7.62,7.45c0,1.88-.03,3.78-.06,5.68-.19,11.94-.38,24.28,6.5,35.09,8.06,12.67,21.58,19.64,38.08,19.64h100.66c4.89,0,7.45-3.83,7.45-7.62s-2.56-7.62-7.45-7.62Z"/>
      <path class="cls-1" d="M0,240.27c-.24,12.49,7.78,24.76,22.01,33.66,10.17,6.36,21,9.67,31.09,9.67,4.23,0,8.34-.58,12.21-1.77,13.87-4.26,24.04-15.31,25.91-28.14,2.14-14.68-5.75-27.06-14.3-38.06,.04,0,.09,0,.13,0,3.08-.03,6.12-.06,9.08-.12,26.57-.62,53.13-.46,75.61-.21h.09c2.69,0,4.98-1.26,6.29-3.47,1.44-2.43,1.46-5.61,.07-8.09-1.3-2.31-3.63-3.65-6.39-3.68-24.82-.27-51.53-.42-78.73,.29-2.68,.07-5.43,.11-8.24,.15-3.24,.04-6.55,.09-9.9,.19-10.71-13.05-21.88-25.15-33.29-36.06-3.55-3.4-8.23-2.34-10.83,.38-2.57,2.69-3.35,7.15,.13,10.48,8.61,8.23,17.08,17.15,25.24,26.56-10.74,1.42-21.14,4.27-30.01,10.13C6.12,218.8,.22,229.05,0,240.27Zm64.3-15.94c3.54,4.58,7.2,9.31,9.59,14.47,5.02,10.86,1.3,21.69-9.24,26.95-12.73,6.36-27.18-.47-32.8-3.7-16.51-9.48-17.29-19.59-16.28-24.78,1.6-8.25,8.77-12.9,14.51-15.34,8.58-3.66,18.1-5.15,27.87-5.79,1.62,2.04,3.21,4.06,4.74,6.07,.54,.7,1.08,1.4,1.62,2.11Z"/>
      <path class="cls-1" d="M88,47.72c1.02,0,2.09-.21,3.18-.67,15.75-6.67,27.78-20.72,32.18-37.57,1.23-4.72-1.94-8.27-5.56-9.22-3.63-.94-7.93,.55-9.16,5.23-3.3,12.64-12.26,22.89-24.58,28.11-3.69,1.56-5.17,5.23-3.61,8.93,1.23,2.9,4.14,5.18,7.55,5.18Z"/>
    </g>
  </g>
</svg>