<?xml version="1.0" encoding="UTF-8"?>
<svg id="Calque_2" data-name="Calque 2" xmlns="http://www.w3.org/2000/svg" viewBox="0 0 203.45 355.4">
  <defs>
    <style>
      .cls-1 {
        fill: #1e1f1d;
      }
    </style>
  </defs>
  <g id="ACSENT">
    <g id="_È" data-name="È">
      <path class="cls-1" d="M51.46,101.41c-.99,6.02-.85,12.25-.72,18.27,.05,2.02,.09,4.1,.09,6.1v40.48c0,2.33,.88,4.13,2.2,5.37,1.25,1.35,3.06,2.25,5.42,2.25,2.01,0,3.82-.71,5.16-2.01,1.47-1.25,2.46-3.13,2.46-5.61v-35.92c0-2.21-.05-4.5-.1-6.72-.32-14.02-.66-28.51,11.4-36.99,7.7-5.42,17.63-5.2,27.23-4.98,1.9,.04,3.78,.08,5.63,.08h85.78c4.89,0,7.44-3.83,7.44-7.62s-2.56-7.62-7.44-7.62H112.12c-2.04,0-4.1-.04-6.17-.08-10.75-.2-21.87-.41-31.93,4.53-11.78,5.78-20.43,17.45-22.57,30.47Z"/>
      <path class="cls-1" d="M66.07,294.99c0-4.89-3.83-7.45-7.62-7.45s-7.62,2.56-7.62,7.45c0,1.88-.03,3.78-.06,5.68-.19,11.94-.38,24.28,6.5,35.09,8.06,12.67,21.58,19.64,38.08,19.64h100.66c4.89,0,7.44-3.83,7.44-7.62s-2.56-7.62-7.44-7.62H101.11c-9.32,0-18.12,0-25.51-6.27-10-8.47-9.8-20.66-9.59-33.55,.03-1.8,.06-3.59,.06-5.36Z"/>
      <path class="cls-1" d="M0,240.28c-.24,12.49,7.78,24.76,22.01,33.66,10.17,6.36,21,9.68,31.09,9.67,4.24,0,8.34-.58,12.21-1.77,13.87-4.26,24.04-15.31,25.91-28.14,2.14-14.68-5.75-27.06-14.3-38.06,.04,0,.09,0,.13,0,3.08-.03,6.12-.06,9.09-.12,26.57-.62,53.13-.46,75.61-.21h.1c4.79,0,7.33-3.75,7.37-7.48,.04-3.72-2.55-7.71-7.42-7.76-24.83-.27-51.55-.41-78.73,.29-2.68,.07-5.44,.11-8.24,.15-3.24,.05-6.55,.09-9.89,.19-10.7-13.04-21.88-25.15-33.29-36.06-2.01-1.92-4.63-2.6-7.21-1.84-2.75,.8-4.95,3.08-5.62,5.81-.61,2.5,.17,5.01,2.13,6.88,8.61,8.23,17.08,17.15,25.24,26.56-10.73,1.42-21.14,4.27-30.01,10.13C6.12,218.8,.22,229.05,0,240.28Zm64.31-15.93c3.54,4.58,7.2,9.31,9.58,14.47,5.02,10.86,1.3,21.69-9.24,26.95-12.73,6.36-27.18-.47-32.8-3.69-16.51-9.48-17.29-19.59-16.28-24.78,1.6-8.25,8.77-12.9,14.51-15.34,8.58-3.66,18.1-5.15,27.87-5.79,1.62,2.04,3.21,4.07,4.74,6.07,.54,.7,1.08,1.41,1.63,2.11Z"/>
      <path class="cls-1" d="M121.61,47.06c1.04,.44,2.11,.66,3.16,.66,1.69,0,3.35-.56,4.8-1.66,2.34-1.77,3.64-4.6,3.32-7.23-.29-2.32-1.81-4.22-4.17-5.22-12.32-5.22-21.28-15.47-24.58-28.11-.69-2.64-2.52-4.54-5.02-5.23-2.73-.75-5.79,.06-7.82,2.06-1.89,1.86-2.57,4.47-1.87,7.15,4.4,16.85,16.43,30.9,32.18,37.57Z"/>
    </g>
  </g>
</svg>