<?xml version="1.0" encoding="UTF-8"?>
<svg id="Calque_2" data-name="Calque 2" xmlns="http://www.w3.org/2000/svg" viewBox="0 0 203.45 349.5">
  <defs>
    <style>
      .cls-1 {
        fill: #1e1f1d;
      }
    </style>
  </defs>
  <g id="ACSENT">
    <g id="_Ê" data-name="Ê">
      <path class="cls-1" d="M196.01,60.6H112.12c-2.04,0-4.1-.04-6.17-.08-10.75-.2-21.86-.41-31.93,4.52-11.78,5.78-20.43,17.45-22.57,30.47-.99,6.02-.85,12.25-.72,18.27,.05,2.02,.09,4.1,.09,6.1v40.48c0,2.32,.87,4.11,2.19,5.36,1.25,1.36,3.06,2.26,5.43,2.26s4.13-.88,5.37-2.2c1.35-1.25,2.25-3.06,2.25-5.42v-35.92c0-2.21-.05-4.5-.1-6.72-.32-14.01-.66-28.51,11.4-36.99,7.7-5.42,17.63-5.2,27.23-4.98,1.9,.04,3.78,.08,5.63,.08h85.78c4.89,0,7.45-3.83,7.45-7.62s-2.56-7.62-7.45-7.62Z"/>
      <path class="cls-1" d="M196.01,334.26H101.11c-9.32,0-18.12,0-25.51-6.26-10-8.47-9.8-20.66-9.59-33.55,.03-1.8,.06-3.59,.06-5.36,0-4.89-3.83-7.45-7.62-7.45s-7.62,2.56-7.62,7.45c0,1.88-.03,3.78-.06,5.68-.19,11.94-.38,24.28,6.5,35.09,8.06,12.67,21.58,19.64,38.08,19.64h100.66c4.89,0,7.45-3.83,7.45-7.62s-2.56-7.62-7.45-7.62Z"/>
      <path class="cls-1" d="M65.31,275.94c13.87-4.26,24.04-15.31,25.91-28.14,2.14-14.68-5.75-27.06-14.3-38.06,.04,0,.09,0,.13,0,3.08-.03,6.12-.06,9.09-.12,26.57-.62,53.13-.46,75.61-.21,2.77,.03,5.06-1.24,6.38-3.47,1.44-2.43,1.46-5.61,.07-8.09-1.3-2.31-3.63-3.65-6.39-3.68-24.81-.27-51.53-.42-78.73,.29-2.68,.07-5.44,.11-8.24,.15-3.24,.05-6.55,.09-9.89,.19-10.71-13.05-21.88-25.15-33.29-36.06-3.55-3.4-8.23-2.34-10.83,.38-2.57,2.69-3.35,7.15,.13,10.48,8.61,8.23,17.08,17.15,25.24,26.56-10.73,1.42-21.14,4.27-30.01,10.13C6.12,212.9,.22,223.15,0,234.38c-.24,12.49,7.78,24.76,22.01,33.66,10.17,6.36,21,9.68,31.09,9.68,4.24,0,8.34-.58,12.21-1.77Zm-1-57.5c3.54,4.58,7.2,9.31,9.58,14.47,5.02,10.86,1.3,21.69-9.24,26.95-12.73,6.36-27.18-.47-32.8-3.7-16.51-9.48-17.29-19.59-16.28-24.78,1.6-8.25,8.77-12.9,14.51-15.34,8.58-3.66,18.1-5.15,27.87-5.79,1.62,2.04,3.21,4.06,4.74,6.07,.54,.7,1.08,1.41,1.63,2.11Z"/>
      <path class="cls-1" d="M78.4,45.52h0c7.06-5.4,14.04-10.59,20.74-15.42,3.48-2.51,7.03-5.03,10.53-7.48,.9-.63,1.81-1.31,2.73-1.99,2.56-1.91,5.2-3.88,7.89-4.91,3.87-1.48,9.41,5.33,12.72,9.41,.76,.94,1.46,1.79,2.07,2.48,5.34,6.05,10.48,12.77,15.28,19.99,1.47,2.21,3.75,3.45,6.31,3.45,.17,0,.34,0,.51-.02,2.89-.18,5.55-1.9,6.77-4.37,1.1-2.23,.89-4.78-.59-7-5.55-8.34-11.56-16.16-17.87-23.25-.64-.72-1.3-1.48-1.98-2.27C138.24,8.02,131.7,.44,122.91,.02c-8.49-.42-15.96,5.32-22.55,10.37-1.42,1.09-2.76,2.11-4.04,3.02-8.53,6.06-17.32,12.55-26.13,19.28-4.02,3.08-3.85,8.28-1.37,11.54,2.44,3.19,6.38,3.72,9.57,1.28Z"/>
    </g>
  </g>
</svg>