<?xml version="1.0" encoding="UTF-8"?>
<svg id="Calque_2" data-name="Calque 2" xmlns="http://www.w3.org/2000/svg" viewBox="0 0 196.2 278.68">
  <defs>
    <style>
      .cls-1 {
        fill: #1e1f1d;
      }
    </style>
  </defs>
  <g id="MAJ">
    <g id="E">
      <path class="cls-1" d="M102.18,.08c-10.37-.19-21.09-.39-30.8,4.37-11.38,5.58-19.73,16.85-21.79,29.42-.96,5.81-.82,11.81-.69,17.62,.04,1.98,.09,3.94,.09,5.88v39c0,2.11,.77,3.78,1.93,4.99,0,.01,.02,.02,.03,.04,1.33,1.55,3.28,2.41,5.47,2.41,2.07,0,3.73-.74,4.93-1.87,1.49-1.22,2.5-3.08,2.5-5.56V61.76c0-2.13-.05-4.34-.1-6.48-.31-13.48-.64-27.42,10.95-35.56,7.39-5.2,16.94-4.99,26.18-4.78,1.83,.04,3.64,.08,5.43,.08h82.64c4.72,0,7.26-3.83,7.26-7.44s-2.5-7.43-7.26-7.43H108.11c-1.96,0-3.94-.04-5.94-.07Z"/>
      <path class="cls-1" d="M63.84,220.38c0-4.72-3.83-7.26-7.44-7.26s-7.43,2.5-7.43,7.26c0,1.81-.03,3.64-.06,5.48-.18,11.51-.37,23.42,6.28,33.86,7.78,12.23,20.84,18.97,36.76,18.97h96.98c4.72,0,7.26-3.83,7.26-7.44s-2.5-7.43-7.26-7.43H97.5c-8.96,0-17.42,0-24.52-6.01-9.6-8.14-9.4-19.85-9.2-32.26,.03-1.73,.06-3.46,.06-5.17Z"/>
      <path class="cls-1" d="M21.25,200.18c9.82,6.14,20.27,9.34,30,9.33,4.09,0,8.05-.56,11.79-1.71,13.4-4.11,23.22-14.79,25.03-27.19,2.06-14.12-5.48-26.01-13.68-36.59,2.95-.03,5.85-.05,8.7-.12,25.61-.6,51.19-.44,72.84-.21,.03,0,.06,0,.09,0,2.62,0,4.86-1.23,6.13-3.39,1.4-2.37,1.43-5.46,.07-7.88-1.27-2.25-3.54-3.56-6.24-3.59-23.9-.26-49.64-.4-75.85,.28-2.58,.07-5.24,.1-7.94,.14-3.11,.04-6.28,.09-9.49,.18-10.3-12.56-21.06-24.21-32.05-34.72-1.96-1.88-4.53-2.53-7.03-1.8-2.68,.78-4.83,3-5.48,5.66-.6,2.44,.16,4.89,2.08,6.72,8.25,7.89,16.38,16.44,24.2,25.45-10.29,1.38-20.27,4.13-28.78,9.75C5.91,146.92,.21,156.83,0,167.67c-.23,12.06,7.51,23.91,21.25,32.51Zm40.72-47.8c3.41,4.41,6.93,8.96,9.22,13.93,4.81,10.41,1.25,20.8-8.86,25.85-12.23,6.1-26.11-.45-31.52-3.56-15.85-9.1-16.6-18.8-15.64-23.78,1.53-7.91,8.42-12.37,13.92-14.71,8.24-3.51,17.39-4.95,26.77-5.57,1.55,1.95,3.07,3.89,4.54,5.81,.52,.68,1.04,1.35,1.57,2.03Z"/>
    </g>
  </g>
</svg>