<?xml version="1.0" encoding="UTF-8"?>
<svg id="Calque_2" data-name="Calque 2" xmlns="http://www.w3.org/2000/svg" viewBox="0 0 205.75 278.41">
  <defs>
    <style>
      .cls-1 {
        fill: #1e1f1d;
      }
    </style>
  </defs>
  <g id="MAJ">
    <g id="F">
      <path class="cls-1" d="M60.27,278.41c3.69,0,7.43-2.5,7.43-7.26v-77.96c0-4.72-3.83-7.26-7.44-7.26s-7.43,2.5-7.43,7.26v77.96c0,4.72,3.83,7.26,7.44,7.26Z"/>
      <path class="cls-1" d="M205.75,7.48c0-3.69-2.5-7.43-7.26-7.43H125.57c-3.41,0-6.81-.01-10.22-.02-6.72-.02-13.66-.05-20.5,.02-21.83,.23-39.82,16.59-41.85,38.04-.84,8.88-.6,18.04-.38,26.89,.1,4.02,.21,8.18,.21,12.21,0,4.72,3.83,7.26,7.44,7.26s7.43-2.5,7.43-7.26c0-3.82,0-7.64,0-11.46,0-7.63-.02-15.27,0-22.9,.06-15.81,11.78-27.8,27.27-27.91,16.62-.11,33.54-.07,49.89-.04,8.32,.02,16.64,.04,24.96,.04h28.67c4.72,0,7.26-3.83,7.26-7.44Z"/>
      <path class="cls-1" d="M.13,135.94c-.93,9.95,3.02,19,11.42,26.16,6.76,5.76,16.28,10.06,26.13,11.79,3.75,.66,7.42,.99,10.97,.99,7.78,0,14.98-1.58,21.2-4.69,12.09-6.05,19.1-19.06,17.05-31.63-1.29-7.92-5.33-14.64-10.04-20.92,5.88,.2,11.73,.51,17.48,.82,3.44,.18,6.88,.37,10.33,.53,5.78,.27,11.66,.49,17.34,.69,9.1,.33,18.5,.67,27.73,1.26,4.04,.26,7.13-2.52,7.39-6.6,.24-3.77-2.16-7.94-7.07-8.26-9.28-.59-18.7-.93-27.82-1.26-6.27-.23-12.76-.47-19.13-.78-2.33-.11-4.65-.23-6.97-.35-10.18-.53-20.63-1.07-31.1-1.1-9.76-12.79-20.47-24.79-31.86-35.69-1.96-1.88-4.52-2.53-7.03-1.8-2.68,.78-4.83,3-5.48,5.66-.6,2.44,.16,4.89,2.08,6.72,8.61,8.24,16.59,16.8,23.75,25.48-9.9,.38-19.84,1.4-28.74,6.17C7.79,114.5,1.2,124.52,.13,135.94Zm67.16,18.14c-6.99,6.44-17.72,6.36-23.49,5.74-11.9-1.27-29.42-8.16-28.94-21.91,.65-18.57,21.53-20.27,42.87-20.43,.17,0,.33,0,.5,0,3.29,4.2,6.46,8.48,9.28,12.85,6.32,9.81,6.24,17.8-.22,23.75Z"/>
    </g>
  </g>
</svg>