<?xml version="1.0" encoding="UTF-8"?>
<svg id="Calque_2" data-name="Calque 2" xmlns="http://www.w3.org/2000/svg" viewBox="0 0 184.51 319.3">
  <defs>
    <style>
      .cls-1 {
        fill: #1d1f1c;
      }
    </style>
  </defs>
  <g id="Calque_1-2" data-name="Calque 1">
    <g>
      <path class="cls-1" d="M158.15,162.6c-2.33-16.42-9.93-32.94-23.71-42.77-13.68-9.76-37.05-11.07-49.54,1.58-7.5,7.59-7.44,19.14-1.48,27.64,5.88,8.39,15.29,13.51,25.23,15.41,21.19,4.05,42.4-1.87,55.59-19.43s19.6-41.46,20.21-63.27c.3-10.82-.64-22.17-4.93-32.22s-12.28-16.87-21.52-22.09c-19.59-11.07-41.79-16.98-63.7-21.41C83.92,3.95,73.44,1.8,62.93,.49,52.98-.75,42.46,.04,34.53,6.81c-9.36,7.99-11.17,20.82-11.73,32.39-.64,13.25-.85,26.54-.77,39.8,.16,27.95,1.98,55.86,5.33,83.61,.49,4.02,3.1,7.5,7.5,7.5,3.68,0,7.99-3.45,7.5-7.5-4.81-39.81-6-79.7-4.69-119.75,.25-7.78,.06-17.89,5.84-23.95,5.07-5.31,13.86-4.26,20.42-3.25,17.87,2.76,35.89,6.25,53.26,11.32,8.73,2.55,17.36,5.56,25.58,9.48,7.4,3.52,15.7,7.56,20.56,14.44s5.76,15.35,6.09,23.23c.41,9.81-.53,19.57-2.84,29.11-3.7,15.25-10.64,34.6-25.11,42.85-12.22,6.97-34.26,7.41-44.31-3.77-6.08-6.76-1.8-12.14,5.8-14.04,6.82-1.71,14.18-1.21,20.38,2.24,12.78,7.12,18.42,22.34,20.37,36.08,.57,4,5.68,6.23,9.23,5.24,4.31-1.21,5.81-5.18,5.24-9.23h0Z"/>
      <path class="cls-1" d="M26.36,156.7c2.33,16.42,9.93,32.94,23.71,42.77,13.68,9.76,37.05,11.07,49.54-1.58,7.5-7.59,7.44-19.14,1.48-27.64s-15.29-13.51-25.23-15.41c-21.19-4.05-42.4,1.87-55.59,19.43C7.01,191.91,.66,215.73,.05,237.53c-.3,10.82,.64,22.17,4.93,32.22,4.24,9.92,12.28,16.87,21.52,22.09,19.59,11.07,41.79,16.98,63.7,21.41,10.38,2.1,20.86,4.25,31.38,5.56,9.95,1.24,20.47,.45,28.4-6.32,9.36-7.99,11.17-20.82,11.73-32.39,.64-13.25,.85-26.54,.77-39.8-.16-27.95-1.98-55.86-5.33-83.61-.49-4.02-3.1-7.5-7.5-7.5-3.68,0-7.99,3.45-7.5,7.5,4.81,39.81,6,79.7,4.69,119.75-.25,7.78-.06,17.89-5.84,23.95-5.07,5.31-13.86,4.26-20.42,3.25-17.87-2.76-35.89-6.25-53.26-11.32-8.73-2.55-17.36-5.56-25.58-9.48-7.4-3.52-15.7-7.56-20.56-14.44s-5.76-15.35-6.09-23.23c-.41-9.81,.53-19.57,2.84-29.11,3.7-15.25,10.64-34.6,25.11-42.85,12.22-6.97,34.26-7.41,44.31,3.77,6.08,6.76,1.8,12.14-5.8,14.04-6.82,1.71-14.18,1.21-20.38-2.24-12.78-7.12-18.42-22.34-20.37-36.08-.57-4-5.68-6.23-9.23-5.24-4.31,1.21-5.81,5.18-5.24,9.23h0Z"/>
    </g>
  </g>
</svg>