<?xml version="1.0" encoding="UTF-8"?>
<svg id="Calque_2" data-name="Calque 2" xmlns="http://www.w3.org/2000/svg" viewBox="0 0 268.88 278.77">
  <defs>
    <style>
      .cls-1 {
        fill: #1e1f1d;
      }
    </style>
  </defs>
  <g id="MAJ">
    <g id="G">
      <path class="cls-1" d="M61.55,267.01c17.85,7.89,37.14,11.76,55.93,11.76,25.52,0,50.12-7.15,68.87-21.08,17.86-13.27,30.78-32.79,34.58-52.24,1.06-5.4,1.78-10.78,2.16-16.08,8.78-1.48,16.39-3.54,23.34-6.28,12.76-5.03,20.25-12.46,22.27-22.06,1.01-4.81-2.37-8.24-6.06-9.01-4-.84-7.51,1.41-8.34,5.36-1.12,5.35-5.78,9.3-14.66,12.42-5.12,1.8-10.6,3.28-16.37,4.42-.45-8.9-1.77-19.95-7.48-28.32-11.96-17.54-39.21-20.27-57.6-12.74-10.64,4.36-19.03,14.3-20.87,24.75-1.45,8.24,1.3,16,7.75,21.85,6.25,5.67,14.9,9.25,26.46,10.95,10.84,1.59,22.79,1.77,36.54,.55-.49,5.6-1.34,10.57-2.56,15.02-4.23,15.32-15.42,30.8-29.22,40.41-23.64,16.46-58.18,21.46-90.16,13.07-30.35-7.97-67.21-31.58-71.24-71.91-.48-4.83-4.82-7.31-8.72-6.93-4,.4-6.51,3.45-6.12,7.43,3.42,34.22,25.84,62.9,61.51,78.66Zm90.14-104.82c-.53-6.69,5.84-12.83,12.4-15.45,4.53-1.81,9.84-2.71,15.08-2.71s10.75,.96,15.1,2.87c5.49,2.41,9.22,6.11,11.07,10.98,2.3,6.04,3.01,12.62,3.17,18.46-15.22,1.56-32.19,2.19-45.86-3.11-4.75-1.84-10.5-5.25-10.96-11.05Z"/>
      <path class="cls-1" d="M7.09,116.02c.29,.03,.59,.05,.88,.05,3.67,0,7.46-2.44,7.95-6.94,1.94-17.84,5.06-38.27,17.56-54.89,11.88-15.79,28.65-24.94,40.63-29.85,32.55-13.32,69.78-12.74,97.15,1.52,18.67,9.72,31.65,26.01,35.63,44.67,.95,4.48,4.94,6.08,8.38,5.35,3.68-.78,7.04-4.21,6.02-9.01C212.31,24.72,170.02,3.09,132.1,.37,91.19-2.57,50.76,12.36,26.58,39.34,8.61,59.38,3.71,84.47,1.08,108.59c-.43,3.94,2.04,7,6.01,7.43Z"/>
    </g>
  </g>
</svg>