<?xml version="1.0" encoding="UTF-8"?>
<svg id="Calque_2" data-name="Calque 2" xmlns="http://www.w3.org/2000/svg" viewBox="0 0 158.42 185.38">
  <defs>
    <style>
      .cls-1 {
        fill: #1e1f1d;
      }
    </style>
  </defs>
  <g id="Calque_1-2" data-name="Calque 1">
    <g id="_" data-name="&amp;quot;">
      <path class="cls-1" d="M21.1,94.36c26.39-21.84,45.03-51.52,52.97-84.68,1.18-4.93-2.2-8.55-5.98-9.46-3.67-.88-7.97,.72-9.11,5.47C50.96,39.2,31.3,68.51,3.61,88.23,1.26,89.91-.09,92.54,0,95.29c.09,2.58,1.45,4.86,3.75,6.27,1.4,.86,2.79,1.75,4.16,2.65v.07l.05-.03c27.06,17.94,47.17,44.64,56.89,75.69,.85,2.73,2.9,4.64,5.6,5.25,.6,.13,1.21,.2,1.82,.2,2.3,0,4.57-.94,6.1-2.6,1.76-1.91,2.29-4.52,1.47-7.16-10.28-32.86-30.95-61.34-58.74-81.25Z"/>
      <path class="cls-1" d="M99.3,94.36c26.39-21.84,45.03-51.52,52.97-84.68,1.18-4.93-2.2-8.55-5.98-9.46-3.66-.88-7.97,.72-9.11,5.47-8.02,33.5-27.68,62.81-55.37,82.53-2.35,1.67-3.7,4.31-3.61,7.05,.09,2.58,1.45,4.86,3.75,6.27,1.4,.86,2.79,1.75,4.16,2.65v.07l.05-.03c27.06,17.94,47.17,44.64,56.89,75.69,.85,2.73,2.9,4.64,5.6,5.25,.6,.13,1.21,.2,1.82,.2,2.3,0,4.57-.94,6.1-2.6,1.76-1.91,2.29-4.52,1.47-7.16-10.28-32.86-30.95-61.34-58.74-81.25Z"/>
    </g>
  </g>
</svg>