<?xml version="1.0" encoding="UTF-8"?>
<svg id="Calque_2" data-name="Calque 2" xmlns="http://www.w3.org/2000/svg" viewBox="0 0 158.42 185.38">
  <defs>
    <style>
      .cls-1 {
        fill: #1e1f1d;
      }
    </style>
  </defs>
  <g id="Calque_1-2" data-name="Calque 1">
    <g id="_" data-name="&amp;quot;">
      <path class="cls-1" d="M154.81,88.23c-27.69-19.72-47.35-49.03-55.37-82.53-1.14-4.75-5.45-6.35-9.12-5.47-3.78,.9-7.15,4.52-5.97,9.46,7.93,33.16,26.57,62.84,52.96,84.68-27.79,19.91-48.46,48.39-58.74,81.25-.83,2.64-.29,5.25,1.47,7.16,1.53,1.67,3.8,2.61,6.11,2.61,.61,0,1.22-.07,1.82-.2,2.71-.61,4.75-2.52,5.6-5.25,9.72-31.05,29.82-57.75,56.89-75.69l.05,.03v-.07c1.37-.91,2.76-1.79,4.16-2.65,2.29-1.41,3.66-3.69,3.75-6.27,.09-2.74-1.25-5.38-3.61-7.05Z"/>
      <path class="cls-1" d="M76.61,88.23C48.92,68.51,29.26,39.2,21.25,5.7,20.11,.95,15.8-.65,12.13,.23c-3.78,.9-7.15,4.52-5.97,9.46,7.93,33.16,26.57,62.84,52.96,84.68C31.33,114.27,10.66,142.76,.38,175.61c-.83,2.64-.29,5.25,1.47,7.16,1.53,1.67,3.8,2.61,6.11,2.61,.61,0,1.22-.07,1.82-.2,2.71-.61,4.75-2.52,5.6-5.25,9.72-31.05,29.82-57.75,56.89-75.69l.05,.03v-.07c1.37-.91,2.76-1.79,4.16-2.65,2.29-1.41,3.66-3.69,3.75-6.27,.09-2.74-1.25-5.38-3.61-7.05Z"/>
    </g>
  </g>
</svg>