<?xml version="1.0" encoding="UTF-8"?>
<svg id="Calque_2" data-name="Calque 2" xmlns="http://www.w3.org/2000/svg" viewBox="0 0 128.98 278.17">
  <defs>
    <style>
      .cls-1 {
        fill: #1e1f1d;
      }
    </style>
  </defs>
  <g id="MAJ">
    <g id="H">
      <path class="cls-1" d="M.89,129.33c1.38,7.12,3.95,20.38,15.35,24.69,1.91,.72,3.83,1.07,5.71,1.07,6.61,0,12.71-4.26,15.66-11.49,2.27-5.57,2.76-11.76,2.71-17.79,.65,.38,1.3,.76,1.95,1.12,12.37,6.91,35.41,19.77,53.93,9.84,4.1-2.2,4.53-6.55,2.84-9.71-1.75-3.26-5.91-5.5-10.18-3.22-7.64,4.09-18.31,.32-26.75-3.43-6.35-2.82-12.53-6.38-18.51-9.82-1.36-.78-2.75-1.58-4.15-2.38-.62-8.16-1.59-16.3-2.69-25.1l-.4-3.2c-2.87-22.91-5.83-46.6-1.04-69.4,.57-2.71-.26-5.3-2.28-7.11-2.1-1.88-5.11-2.56-7.66-1.73-2.3,.75-3.93,2.64-4.46,5.18-5.24,24.93-2.19,49.98,.76,74.21,.78,6.44,1.58,12.99,2.23,19.57-5.1-1.52-10.52-1.63-15.63,2.04-7.32,5.26-9.81,14.23-7.4,26.65Zm22.85,9.03c-.46,.98-.99,1.63-1.46,1.79-.41,.14-1-.09-1.42-.31-2.58-1.36-3.55-5.4-4.33-8.66l-.14-.58c-1.82-7.5-1.79-13.94,.07-15.65,.36-.33,.86-.49,1.51-.49,.6,0,1.33,.14,2.18,.42,1.66,.55,3.31,1.25,4.96,2.05,.05,1.03,.12,2.1,.18,3.19,.38,6.18,.82,13.19-1.55,18.24Z"/>
      <path class="cls-1" d="M33.37,154.55c-3.98-.7-7.24,1.57-7.93,5.51-2.91,16.6-1.62,33.3-.38,49.46,.14,1.82,.28,3.64,.42,5.47,.91,12.33,1.8,24.65,2.68,36.98,.46,6.38,.92,12.75,1.38,19.13,.2,2.77,1.73,5.05,4.19,6.24,1.13,.55,2.37,.82,3.59,.82,1.52,0,3.01-.42,4.24-1.25,1.99-1.35,3.02-3.59,2.83-6.17l-1.37-18.88c-.85-11.81-1.71-23.61-2.57-35.42-.21-2.88-.45-5.77-.69-8.66-1.2-14.6-2.45-29.7,.1-44.23,.84-4.77-2.65-8.32-6.51-9Z"/>
      <path class="cls-1" d="M121.92,63.97c1.39-18.98,2.7-37.6,3.51-56.6,.11-2.62-1.02-4.88-3.1-6.2-2.29-1.46-5.38-1.56-7.87-.26-2.36,1.23-3.78,3.51-3.9,6.25-.85,20.07-2.36,40.52-3.82,60.29-3.44,46.7-7,94.99-2.32,142.57,1.95,19.86,5.29,38.94,9.93,56.71,.67,2.57,2.46,4.43,4.9,5.1,.66,.18,1.33,.27,2.01,.27,2.06,0,4.12-.81,5.61-2.28,1.84-1.82,2.51-4.36,1.83-6.98-16.67-63.85-11.77-130.84-7.03-195.62l.24-3.25Z"/>
    </g>
  </g>
</svg>