<?xml version="1.0" encoding="UTF-8"?>
<svg id="Calque_2" data-name="Calque 2" xmlns="http://www.w3.org/2000/svg" viewBox="0 0 374.44 298.9">
  <defs>
    <style>
      .cls-1 {
        fill: #1e1f1d;
      }
    </style>
  </defs>
  <g id="Calque_1-2" data-name="Calque 1">
    <path id="_" data-name="#" class="cls-1" d="M368.66,82.76c-35.23-7.54-71.78-2.16-107.13,3.05-2.38,.35-4.76,.7-7.13,1.05,2.67-4.56,5.35-9.12,8.04-13.67,11.99-20.27,24.51-40.97,37.2-61.51,1.46-2.36,1.58-5.04,.34-7.35-1.36-2.53-4.14-4.22-7.07-4.31-2.76-.08-5.18,1.26-6.68,3.69-17.48,28.29-34.8,57.19-51.51,85.94-27.93,3.91-56.11,8.19-83.88,12.74,5.82-10.06,11.55-19.85,17.07-29.18,11.99-20.27,24.51-40.97,37.2-61.51,1.46-2.36,1.58-5.04,.34-7.35C204.08,1.78,201.31,.09,198.37,0c-2.75-.1-5.18,1.26-6.68,3.69-20.75,33.58-41.19,67.89-60.78,101.99-4.24,.72-8.47,1.44-12.7,2.17-23.28,4.03-47.17,8.4-71.01,13.01-4.1,.79-6.5,4.38-5.7,8.54,.77,3.99,4.52,7.55,9.46,6.6,24.54-4.74,47.5-8.99,70.02-12.95-7.67,13.46-16.33,28.76-24.78,44.02-6.45,1.08-12.9,2.17-19.34,3.29-23.28,4.03-47.18,8.41-71.01,13.01-2.65,.51-4.63,2.16-5.45,4.52-.91,2.65-.24,5.81,1.71,8.06,1.89,2.18,4.63,3.11,7.5,2.56,26.59-5.13,52.52-9.91,77.15-14.2-8.1,14.94-15.24,28.54-21.76,41.45-8.55,16.93-18.84,39.45-22.53,63.61-.78,5.11,3.03,8.81,7.16,9.44,4.1,.63,7.39-1.79,8.01-5.87,2.58-16.87,8.6-34.51,18.94-55.49,7.97-16.17,16.79-32.3,25.32-47.89l4.73-8.64c28.83-4.86,56.93-9.21,83.61-12.95-11.99,21.69-21.8,40.16-30.72,57.81-8.55,16.93-18.84,39.45-22.53,63.61-.78,5.11,3.03,8.81,7.16,9.44,.43,.07,.85,.1,1.27,.1,3.49,0,6.19-2.32,6.75-5.97,2.58-16.87,8.6-34.51,18.94-55.49,7.97-16.17,16.79-32.3,25.32-47.89l3.59-6.57c3.22-5.91,6.47-11.8,9.73-17.69,15.49-2.06,30.87-3.96,45.71-5.65,21.86-2.49,45.22-4.12,67.97,.75,2.83,.6,5.55-.25,7.45-2.35,1.99-2.2,2.71-5.36,1.84-8.06-.78-2.42-2.76-4.14-5.43-4.71-35.23-7.54-71.78-2.16-107.13,3.05l-1.07,.16c8.39-14.98,16.95-30.03,25.5-44.81,17.98-2.43,35.54-4.63,52.21-6.53,21.86-2.49,45.22-4.12,67.97,.75,5.03,1.08,8.64-2.45,9.47-6.32,.77-3.61-.9-7.79-5.6-8.8Zm-143.63,23.62c-1.47,2.56-2.94,5.12-4.41,7.69-6.23,10.91-13.58,23.82-21.08,37.2-27.73,3.84-55.78,8.05-83.5,12.53,8.08-14.59,16.43-29.44,24.88-44.21,28.88-4.93,57.15-9.37,84.11-13.21Z"/>
  </g>
</svg>