<?xml version="1.0" encoding="UTF-8"?>
<svg id="Calque_2" data-name="Calque 2" xmlns="http://www.w3.org/2000/svg" viewBox="0 0 89.88 276.05">
  <defs>
    <style>
      .cls-1 {
        fill: #1e1f1d;
      }
    </style>
  </defs>
  <g id="MAJ">
    <g id="I">
      <path class="cls-1" d="M50.38,1.06c-10.48-3.98-16.9,3.86-20.64,12.39,0,0,0,0,0,.01-8.46,12.17,23.28,29.87,30.68,11.67,3.58-8.81-1-20.64-10.03-24.07Zm-11.86,16.78s-.03-.02-.04-.03c.02-.03,.03-.06,.05-.09,0,.03,0,.07,0,.11Zm12.81,3.6c-1.57,3.37-5.36,1.57-7.63,.29-1.39-.79-2.8-1.65-3.99-2.72-.3-.27-.74-.88-1.13-1.12,.26-.49,.43-.97,.5-1.44,1.44-3.46,3.65-8.02,8.06-6.05,3.55,1.59,5.88,7.41,4.19,11.05Z"/>
      <path class="cls-1" d="M46.82,190.71c1.19,.67,2.55,1.01,3.91,1.01s2.78-.35,3.98-1.06c2.19-1.29,3.43-3.56,3.41-6.23l-1.05-120.17v-.53c-.05-4.72-3.88-7.24-7.49-7.24-.02,0-.05,0-.07,0-3.67,.03-7.35,2.54-7.31,7.29l1.06,120.7c.02,2.69,1.33,4.96,3.57,6.24Z"/>
      <path class="cls-1" d="M17.4,267.28c8.67,3.45,19.1,1.67,27.22-4.65,3.57-2.78,6.43-6.21,8.61-10.34,.65,.93,1.29,1.85,1.92,2.77,1.47,2.12,2.86,4.12,4.22,5.94,5.45,7.3,12.46,14.79,23.18,15.06,.07,0,.14,0,.21,0,2.56,0,4.74-1.18,6.01-3.27,1.43-2.34,1.48-5.43,.15-7.88-1.25-2.3-3.53-3.65-6.24-3.72-5.97-.15-10.59-7.29-14.31-13.02-.68-1.05-1.33-2.05-1.94-2.95-2.66-3.87-5.35-7.65-8.27-11.11,.32-4.17,.32-8.26,.27-13.07-.04-4.75-3.95-7.24-7.55-7.24-3.67,.03-7.35,2.55-7.31,7.29,0,.27,0,.52,0,.78-.69-.36-1.39-.7-2.12-1.02-12.34-5.43-29.84-4.17-37.95,8.88-3.74,6.01-4.51,13.22-2.19,20.29,2.57,7.83,8.59,14.28,16.09,17.27Zm-2.18-27.07c.65-3.27,2.96-5.73,6.52-6.93,2.09-.7,4.09-1.03,5.99-1.03,5.59,0,10.42,2.78,14.75,6.86-1.34,5.68-3.99,9.87-7.9,12.5-4.03,2.71-10.1,4.07-15.05-.22-3.38-2.93-5.08-7.33-4.31-11.19Z"/>
    </g>
  </g>
</svg>