<?xml version="1.0" encoding="UTF-8"?>
<svg id="Calque_2" data-name="Calque 2" xmlns="http://www.w3.org/2000/svg" viewBox="0 0 168.37 276.08">
  <defs>
    <style>
      .cls-1 {
        fill: #1e1f1d;
      }
    </style>
  </defs>
  <g id="MAJ">
    <g id="J">
      <path class="cls-1" d="M107.06,.99c-9.79-3.69-15.83,3.55-19.35,11.52,0,0,0,.01-.01,.02-8.08,11.62,21.87,28.29,28.83,11,3.34-8.28-.98-19.34-9.47-22.53Zm-10.47,15.59s0,.02,0,.03c0,0,0,0-.01,0,0,0,0-.02,.01-.03Zm10.82,3.35c-1.48,2.75-4.59,1.01-6.36,.01-1.25-.71-2.5-1.47-3.57-2.42-.22-.2-.51-.59-.8-.84,.18-.4,.31-.79,.36-1.17,1.22-2.96,3.05-6.8,6.77-5.19,2.96,1.28,5.21,6.6,3.59,9.61Z"/>
      <path class="cls-1" d="M21.92,201.41c-.81-2.68-3.04-4.81-5.7-5.44-2.43-.57-4.85,.2-6.66,2.13C2.62,205.48-.65,214.81,.11,225.07c.99,13.43,8.9,27.52,20.64,36.79,11.79,9.3,26.59,14.22,41.15,14.22,7.4,0,14.75-1.27,21.61-3.88,13.56-5.17,24.34-15.08,31.17-28.66,1.24-2.47,1.1-5.19-.38-7.46-1.55-2.36-4.29-3.78-6.96-3.63-2.42,.14-4.47,1.55-5.64,3.87-5.96,11.85-15.23,19.84-26.81,23.09-9.65,2.71-20.1,2.32-30.25-1.15-9.89-3.38-18.58-9.89-23.84-17.87-9.3-14.11-6.42-25.73-.63-31.89,1.87-1.98,2.5-4.57,1.74-7.09Z"/>
      <path class="cls-1" d="M123.65,115.09c9.98,5.73,20.71,6.76,29.43,2.82,10.46-4.72,16.52-16.33,15.08-28.89-1.07-9.34-6-21.09-16.65-26.08-8.01-3.76-17.63-3.04-27.09,2.02-3.24,1.73-6.17,3.8-8.77,6.17-.62-6.51-.62-13.12-.62-19.04v-.94c0-4.72-3.83-7.26-7.44-7.26h0c-3.69,0-7.43,2.5-7.42,7.27,0,10.96,0,24.99,3.82,37.65-3.58,9.76-4.57,21.59-2.79,35.06,.88,6.63,2.12,13.27,3.33,19.69,1.51,8,3.06,16.28,3.88,24.49,1.87,18.81,1.75,33.72-.35,46.93-.45,2.8,.56,5.43,2.76,7.22,1.5,1.22,3.37,1.87,5.18,1.87,.86,0,1.7-.15,2.48-.45,2.16-.83,3.63-2.73,4.03-5.23,3.19-19.99,2.75-42.53-1.31-66.98-.66-3.96-1.53-8.06-2.46-12.4-2.14-10.02-4.45-20.85-4.1-30.98,2.53,2.67,5.51,5.05,9.01,7.06Zm14.99-39.69c3.64-.5,6.79,.5,9.36,2.96,5.14,4.94,7.85,15.6,3.64,21.95-4.86,7.32-13.88,4.77-16.53,3.81-7.68-2.77-12.42-8.26-15.35-15.04,3.7-6.02,11.67-12.7,18.88-13.68Z"/>
    </g>
  </g>
</svg>