<?xml version="1.0" encoding="UTF-8"?>
<svg id="Calque_2" data-name="Calque 2" xmlns="http://www.w3.org/2000/svg" viewBox="0 0 186.35 278.01">
  <defs>
    <style>
      .cls-1 {
        fill: #1e1f1d;
      }
    </style>
  </defs>
  <g id="MAJ">
    <g id="K">
      <path class="cls-1" d="M61.89,157.53v113.21c0,4.72,3.83,7.26,7.44,7.26s7.43-2.5,7.43-7.26v-113.21c0-4.72-3.83-7.26-7.44-7.26s-7.43,2.5-7.43,7.26Z"/>
      <path class="cls-1" d="M69.33,107.12c3.69,0,7.43-2.5,7.43-7.26V7.26c0-4.72-3.83-7.26-7.44-7.26s-7.43,2.5-7.43,7.26V99.86c0,4.72,3.83,7.26,7.44,7.26Z"/>
      <path class="cls-1" d="M98.58,164.29c4.45,7.31,6.13,15.3,7.86,24.99,.74,4.13,1.4,8.36,2.04,12.46,.9,5.78,1.84,11.75,3.01,17.6,2.99,14.93,8.81,36.31,24.68,49.5,7.31,6.08,15.85,9.14,24.7,9.14,7.27,0,14.74-2.07,21.89-6.25,4.08-2.38,4.34-6.97,2.52-10.09-1.86-3.19-5.9-5.16-10.02-2.75-7.39,4.32-14,5.55-20.19,3.78-6.99-2-12.25-7.46-15.42-11.68-10.77-14.31-13.64-32.86-16.42-50.79-.21-1.37-.42-2.74-.64-4.09-.21-1.33-.41-2.67-.62-4.02-1.36-8.94-2.76-18.18-6.23-26.67-3.17-7.77-8.24-15.31-15.5-23.06-1.47-1.58-3.02-3.17-4.62-4.77,13.69-7.94,26.49-19.21,39.56-34.72,16.12-19.14,25.71-37.78,29.32-56.98,.52-2.75-.39-5.36-2.49-7.16-2.15-1.85-5.16-2.47-7.67-1.59-2.24,.79-3.8,2.69-4.27,5.21-2.94,15.65-10.46,31.2-22.35,46.23-13.22,16.71-25.43,28.03-38.43,35.6-1.67,.97-3.38,1.91-5.11,2.79-4.91-4.28-10.32-8.7-16.27-13.29-10.9-8.42-23.95-17.03-38.09-17.07h-.08c-14.92,0-28.2,12.35-29.61,27.56-.66,7.07,1.19,13.19,5.48,18.18,5.73,6.66,15.68,10.87,27.31,11.56,18.21,1.07,35.99-4.26,48.43-9.35,6.55,5.95,12.71,12.31,17.22,19.72Zm-29.91-30.77c-8.21,2.77-16.7,4.59-25,5.33-9.66,.85-21.7-.18-26.58-5.64-2.1-2.36-2.74-5.41-1.94-9.34,1.03-5.03,4.96-9.76,9.56-11.51,1.53-.58,3.17-.87,4.97-.87,2.51,0,5.35,.57,8.62,1.71,11.68,4.07,22.04,13.08,30.36,20.32h.01Z"/>
    </g>
  </g>
</svg>