<?xml version="1.0" encoding="UTF-8"?>
<svg id="Calque_2" data-name="Calque 2" xmlns="http://www.w3.org/2000/svg" viewBox="0 0 153.76 278.48">
  <defs>
    <style>
      .cls-1 {
        fill: #1e1f1d;
      }
    </style>
  </defs>
  <g id="MAJ">
    <g id="L">
      <path class="cls-1" d="M.86,186.47c.41,11.96,.95,23.77,1.38,32.71,.1,2.19,.18,4.46,.25,6.78,.52,15.78,1.1,33.66,11.21,46.33,3.85,4.83,9.01,5.52,14,5.54,3.04,.01,6.08,.01,9.11,.02,2.92,0,5.84,0,8.76,.01,12.07,.04,24,.14,33.04,.22l4.93,.04c20.63,.18,41.96,.36,62.95,.37h0c2.68,0,4.95-1.27,6.23-3.49,1.38-2.4,1.38-5.49,0-7.89-1.28-2.22-3.55-3.49-6.23-3.49-19.09,0-38.51-.17-57.29-.33-14.01-.12-28.5-.24-42.75-.3-4.11-.02-8.23-.03-12.34-.03h-.02c-.82,0-1.7,.06-2.63,.12-2.46,.17-5.84,.4-6.7-.88-4.21-6.22-5.65-15.02-6.35-21.09-1.46-12.53-1.82-25.54-2.16-38.13-.11-4.05-.22-8.09-.36-12.11l-.21-5.81c-.21-5.78-.43-11.73-.6-17.63,2.84,13.2,10.98,21.03,22.64,21.32,14.54,.39,24.81-12.65,29.6-24.96,4.34-11.15,5.3-27.89-6.27-38.36-7.73-6.99-19.37-9.46-30.92-6.88,.13-2.17,.25-4.34,.35-6.5,.13-2.61-.98-4.87-3.03-6.19-2.27-1.47-5.36-1.58-7.86-.3-2.38,1.22-3.83,3.5-3.96,6.24-.22,4.49-.42,9.01-.59,13.51C6,132.07,.91,142.73,.17,156.7c-.39,7.21-.02,14.54,.33,21.63,.14,2.72,.27,5.44,.37,8.14Zm39.88-54.03c9.39,.55,12.76,6.3,13.94,11.02,2.52,10.15-2.82,23.65-11.43,28.89-3.26,1.98-8.04,2.35-10.85-.79-2.8-3.12-3.35-8.38-3.54-13.61-.28-7.83-.03-15.83,.37-23.77,3.29-1.31,7.15-2,11.52-1.74Z"/>
      <path class="cls-1" d="M21.42,5.68c-4.53,28.03-5.24,56.67-5.33,80.98-.01,2.67,1.25,4.94,3.45,6.23,1.2,.7,2.58,1.05,3.96,1.05s2.73-.34,3.92-1.02c2.23-1.28,3.52-3.55,3.53-6.23,.12-29.01,1-53.31,4.92-77.59,.78-4.83-2.79-8.36-6.69-8.99-3.94-.64-7.13,1.66-7.76,5.57Z"/>
    </g>
  </g>
</svg>