<?xml version="1.0" encoding="UTF-8"?>
<svg id="Calque_2" data-name="Calque 2" xmlns="http://www.w3.org/2000/svg" viewBox="0 0 314.49 278.41">
  <defs>
    <style>
      .cls-1 {
        fill: #1e1f1d;
      }
    </style>
  </defs>
  <g id="MAJ">
    <g id="M">
      <path class="cls-1" d="M106.6,29.2c11.26,10.24,21.06,22.68,30.55,34.71,2.07,2.62,4.12,5.23,6.19,7.81,12.89,16.1,25.57,33.72,30.99,53.51,5.19,18.95,2.05,38.05-8.62,52.4-3.53,4.75-11.04,12.62-21.75,12.02-8.14-.46-14.62-6.09-17.32-15.06-7.36-24.43,8.32-45.95,22.15-64.93l.86-1.18c2.35-3.23,1.72-7.13-1.52-9.5-3.18-2.31-8.17-2.36-11.04,1.57l-2.18,2.98c-7.11,9.72-14.47,19.77-19.38,31.12-4.74,10.95-6.51,23.47-4.97,35.26,1.64,12.56,6.81,22.35,14.96,28.3,7.8,5.7,18,7.65,27.97,5.35,9.7-2.24,18.44-8.62,25.29-18.44,5.69-8.17,9.89-18.44,11.82-28.91,3.73-20.29-1.53-42.42-15.66-65.78-10.04-16.6-22.71-31.76-34.98-46.43-1.99-2.38-3.97-4.75-5.94-7.12C121,21.19,105.32,4.15,83.97,.71,49.98-4.77,24.68,21.41,8.79,78.5-.07,110.32-.24,143.87,.29,172.82l.1,5.12c.57,30.52,1.16,62.09-.38,93.1-.13,2.61,.98,4.87,3.04,6.19,1.22,.79,2.68,1.19,4.15,1.19,1.27,0,2.55-.29,3.71-.89,2.38-1.22,3.83-3.5,3.96-6.24,1.17-23.7,1.4-48.69,.73-78.66l-.14-6.15c-.54-22.82-1.09-46.42,1.25-69.44,2.08-20.49,7.05-40.66,14.77-59.96,7.7-19.24,17.12-31.64,28.81-37.92,19.29-10.36,37.3,1.85,46.32,10.06Z"/>
      <path class="cls-1" d="M246.17,3.77c-26.32-10.06-52.31,5.73-67.86,23.85-3.12,3.63-1.94,8.41,.99,10.93,3.06,2.63,7.18,2.34,9.78-.7,9.17-10.68,27.97-27.56,50.88-20.56,20.22,6.18,33.05,25.5,38.9,36.47,8.77,16.45,14.43,36.1,17.82,61.86,3.02,22.98,3.29,45.85,2.77,73.13-.11,5.88-.26,11.75-.4,17.63-.52,21.26-1.07,43.24,0,64.9,.13,2.74,1.58,5.02,3.96,6.24,1.16,.6,2.44,.89,3.71,.89,1.47,0,2.93-.4,4.15-1.18,2.06-1.33,3.17-3.58,3.04-6.2-1.04-21.23-.51-42.91,0-63.87,.76-31.02,1.54-63.1-2.71-94.57-7.95-58.76-29.83-95.38-65.01-108.82Z"/>
    </g>
  </g>
</svg>