<?xml version="1.0" encoding="UTF-8"?>
<svg id="Calque_2" data-name="Calque 2" xmlns="http://www.w3.org/2000/svg" viewBox="0 0 230.05 278.18">
  <defs>
    <style>
      .cls-1 {
        fill: #1e1f1d;
      }
    </style>
  </defs>
  <g id="MAJ">
    <g id="N">
      <path class="cls-1" d="M7.58,278.18c.06,0,.12,0,.18,0,3.62-.08,7.23-2.62,7.12-7.32-.2-8.44,.84-17.02,1.84-25.32,.31-2.56,.62-5.11,.89-7.67,1.09-10.12,1.86-20.88,2.42-33.88,.43-9.94,.68-20.05,.93-29.82,.31-12.13,.62-24.67,1.28-36.97,1.14-21.51,3.71-41.72,7.86-61.78,3.31-16.02,6.72-30.24,14.93-41.92,8.42-11.97,21.81-17.25,35.81-14.12,5.49,1.23,13.26,3.98,19.14,10.14,5.68,5.95,10.01,13.9,14.2,21.58,.56,1.02,1.11,2.03,1.65,3.03,8.78,15.94,16.62,34.05,24.69,57,1.19,3.38,2.38,6.75,3.58,10.13,6.08,17.12,12.36,34.81,17,52.62,5.28,20.27,9.35,41.71,3.53,61.19-3.14,10.5-11.05,19.9-20.15,23.95-6.59,2.93-13.47,2.95-19.92,.06-9.79-6.15-12.76-19.07-10.49-29.42,3.32-15.07,15.17-26.52,27.49-36.64,3.09-2.54,3.46-6.49,.9-9.6-2.49-3.03-7.31-4.32-11.06-1.24-12.5,10.28-29.46,26.39-32.38,47.59-1.92,13.96,2.53,31.93,16.36,41.16,.44,.36,.94,.68,1.49,.94h0s.01,0,.02,0c.93,.55,1.89,1.06,2.89,1.53,1.08,.51,2.16,.73,3.19,.75,16.57,4.72,35.37-1.6,46.68-16.4,12.77-16.71,13.59-38.93,12.03-54.63-2.43-24.49-10.21-48.36-17.96-70.7l-1.73-5c-6.86-19.81-13.96-40.29-22.8-59.76-5.17-11.39-10.52-21.55-16.34-31.07-5.18-8.47-10.53-17.22-19.09-23.27C88.57,2.61,67.9,.5,52.31,8.08c-13.67,6.64-23.95,20.07-30.56,39.9-6.6,19.81-9.71,40.82-11.67,56.9-2.8,22.94-3.4,46.35-3.97,69-.12,4.63-.23,9.27-.37,13.9-.35,12.15-.88,26.5-2.11,40.76-.4,4.6-.97,9.3-1.52,13.84C.98,251.7-.2,261.34,.03,270.98c.11,4.71,3.94,7.2,7.56,7.2Z"/>
      <path class="cls-1" d="M209.43,84.25c-7.69,22.3-21.55,41.27-37.52,62-1.53,1.99-1.91,4.34-1.04,6.45,.98,2.38,3.45,4.17,6.28,4.55,.38,.05,.75,.08,1.12,.08,2.42,0,4.61-1.07,6.12-3.04,15.16-19.67,30.68-40.95,39.28-65.78,7.91-22.84,6.7-47.01,5.52-70.4-.18-3.66-.37-7.32-.52-10.95-.2-4.85-4.25-7.3-7.97-7.15-3.57,.15-7.08,2.72-6.89,7.35,.15,3.78,.35,7.57,.55,11.37,1.14,21.9,2.31,44.54-4.93,65.52Z"/>
    </g>
  </g>
</svg>