<?xml version="1.0" encoding="UTF-8"?>
<svg id="Calque_2" data-name="Calque 2" xmlns="http://www.w3.org/2000/svg" viewBox="0 0 315.19 361.73">
  <defs>
    <style>
      .cls-1 {
        fill: #1e1f1d;
      }
    </style>
  </defs>
  <g id="ACSENT">
    <g id="_Ô" data-name="Ô">
      <path class="cls-1" d="M312.08,122.59c-3.26-2.32-8.35-2.3-11.21,1.73-11.33,15.96-29.02,26.33-52.58,30.84-23.79,4.55-47.79,2.05-63.74-.84-18.53-3.36-49.55-8.99-55.07-30.34-2.58-9.99,2.23-22.14,11.43-28.9,9.6-7.05,23.54-8.94,37.28-5.03,13.66,3.88,38.9,16.41,54.4,56.66,1.04,2.7,3.26,4.5,6.11,4.95,2.89,.46,5.85-.61,7.54-2.7,1.5-1.86,1.83-4.33,.89-6.76-8.43-21.88-24.94-50.66-55.73-63.57-16.05-6.73-32.62-7.62-46.66-2.52-14.68,5.34-25.77,17.06-29.67,31.35-3.98,14.56,.37,29.45,11.61,39.83,10.88,10.04,25.04,14.79,37.45,18.1,18.41,4.91,37.01,7.41,54.78,7.41,7.19,0,14.24-.41,21.08-1.23,32.9-3.96,58.42-17.5,73.8-39.16,2.39-3.36,1.69-7.39-1.7-9.8Z"/>
      <path class="cls-1" d="M128.46,361.73c32.89,0,63.19-10.17,85.57-29.17,19.94-16.93,33.57-40.37,40.52-69.67,5.88-24.77,6.64-52.83,2.21-81.15-.63-4-3.87-6.36-7.89-5.72-4.01,.63-7.7,4.25-6.92,9.22,11.35,72.4-15.85,112.33-28.07,126.14-21.61,24.42-56.17,37.12-94.79,34.86-36.61-2.14-68.14-18.21-84.34-42.98-8.11-12.41-13.71-28.46-17.11-49.1-3.06-18.56-3.04-37.85,.05-55.77,3.81-22.07,11.61-40.74,23.2-55.47,14.83-18.87,37.18-31.96,61.3-35.92,4.01-.66,6.35-3.94,5.69-7.98-.66-3.99-4.28-7.64-9.22-6.82-24.01,3.94-47.29,16.5-63.86,34.46-12.84,13.92-22.66,32.08-28.39,52.53-10.98,39.18-7.68,84.12,8.82,120.21,14.54,31.79,47.75,54.41,88.84,60.52,8.24,1.22,16.4,1.83,24.4,1.83Z"/>
      <path class="cls-1" d="M164.27,14.12C159.01,8.02,152.47,.43,143.68,.02c-8.48-.41-15.96,5.32-22.55,10.37-1.42,1.09-2.76,2.11-4.04,3.03-8.54,6.06-17.33,12.55-26.13,19.28-2.33,1.78-3.44,4.47-3.06,7.4,.38,2.91,2.2,5.44,4.65,6.46,2.16,.9,4.57,.52,6.62-1.05,7.07-5.41,14.05-10.6,20.73-15.42,3.47-2.51,7.02-5.02,10.53-7.48,.9-.63,1.81-1.3,2.73-1.99,2.56-1.91,5.21-3.88,7.89-4.91,3.87-1.48,9.41,5.33,12.72,9.41,.76,.94,1.46,1.79,2.07,2.48,5.33,6.05,10.48,12.77,15.28,19.99,1.62,2.44,3.97,3.45,6.28,3.45,1.66,0,3.31-.52,4.65-1.42,3-2,4.67-6.06,2.07-9.97-5.55-8.34-11.56-16.16-17.87-23.25-.64-.72-1.3-1.48-1.98-2.27Z"/>
    </g>
  </g>
</svg>