<?xml version="1.0" encoding="UTF-8"?>
<svg id="Calque_2" data-name="Calque 2" xmlns="http://www.w3.org/2000/svg" viewBox="0 0 315.19 348.03">
  <defs>
    <style>
      .cls-1 {
        fill: #1e1f1d;
      }
    </style>
  </defs>
  <g id="ACSENT">
    <g id="_Ö" data-name="Ö">
      <g>
        <path class="cls-1" d="M108.04,1.03c-10.16-3.83-16.43,3.69-20.09,11.95,0,0,0,.01-.01,.02-8.38,12.06,22.7,29.36,29.93,11.42,3.46-8.6-1.02-20.07-9.83-23.39Zm-10.87,16.18s0,.02,0,.04c0,0,0,0-.01,0,0,0,0-.02,.01-.03Zm11.23,3.47c-1.53,2.85-4.77,1.05-6.6,.01-1.29-.73-2.59-1.52-3.7-2.52-.23-.21-.53-.61-.83-.87,.19-.41,.32-.82,.38-1.22,1.27-3.07,3.17-7.06,7.03-5.38,3.07,1.33,5.41,6.85,3.72,9.97Z"/>
        <path class="cls-1" d="M157.48,1.03c-10.16-3.83-16.43,3.69-20.09,11.95,0,0,0,.01-.01,.02-8.38,12.06,22.7,29.36,29.93,11.42,3.46-8.6-1.02-20.07-9.83-23.39Zm-10.87,16.18s0,.02,0,.03c0,0,0,0-.01,0,0,0,0-.02,.01-.03Zm11.23,3.47c-1.53,2.85-4.76,1.05-6.6,.01-1.29-.73-2.59-1.52-3.7-2.52-.23-.21-.53-.61-.83-.87,.19-.41,.32-.82,.38-1.22,1.27-3.07,3.17-7.06,7.03-5.38,3.07,1.33,5.41,6.85,3.72,9.97Z"/>
      </g>
      <path class="cls-1" d="M312.08,108.89c-3.26-2.32-8.35-2.3-11.21,1.73-11.33,15.96-29.02,26.33-52.58,30.84-23.78,4.55-47.79,2.05-63.74-.84-18.53-3.36-49.55-8.99-55.07-30.34-2.58-9.99,2.23-22.15,11.43-28.9,9.6-7.05,23.54-8.93,37.28-5.03,13.66,3.88,38.9,16.41,54.4,56.66,1.04,2.7,3.26,4.5,6.11,4.95,2.89,.45,5.85-.61,7.54-2.7,1.5-1.86,1.83-4.33,.89-6.76-8.43-21.88-24.94-50.66-55.73-63.57-16.05-6.73-32.62-7.62-46.66-2.52-14.68,5.34-25.77,17.06-29.67,31.35-3.98,14.56,.37,29.45,11.61,39.83,10.88,10.04,25.04,14.78,37.45,18.1,18.41,4.91,37.01,7.41,54.78,7.41,7.19,0,14.24-.41,21.08-1.23,32.9-3.96,58.42-17.5,73.8-39.16,2.39-3.36,1.69-7.39-1.7-9.8Z"/>
      <path class="cls-1" d="M128.46,348.03c32.89,0,63.19-10.17,85.57-29.17,19.94-16.93,33.57-40.37,40.52-69.67,5.88-24.77,6.64-52.83,2.21-81.15-.4-2.55-1.9-4.5-4.1-5.36-2.49-.96-5.58-.4-7.85,1.44-2.27,1.83-3.31,4.53-2.85,7.41,11.35,72.4-15.85,112.33-28.07,126.14-21.61,24.42-56.17,37.12-94.79,34.86-36.61-2.14-68.14-18.21-84.34-42.98-8.11-12.4-13.71-28.46-17.11-49.1-3.06-18.56-3.04-37.85,.05-55.77,3.81-22.07,11.61-40.74,23.2-55.47,14.83-18.87,37.18-31.96,61.3-35.92,2.56-.42,4.51-1.94,5.35-4.17,.95-2.51,.36-5.6-1.49-7.86-1.83-2.24-4.53-3.25-7.39-2.78-24.01,3.94-47.29,16.5-63.86,34.46-12.84,13.92-22.66,32.08-28.39,52.53-10.98,39.18-7.68,84.12,8.82,120.21,14.54,31.79,47.75,54.41,88.84,60.52,8.24,1.22,16.4,1.83,24.4,1.83Z"/>
    </g>
  </g>
</svg>