<?xml version="1.0" encoding="UTF-8"?>
<svg id="Calque_2" data-name="Calque 2" xmlns="http://www.w3.org/2000/svg" viewBox="0 0 303.82 278.53">
  <defs>
    <style>
      .cls-1 {
        fill: #1e1f1d;
      }
    </style>
  </defs>
  <g id="MAJ">
    <g id="O">
      <path class="cls-1" d="M300.81,47.97c-3.18-2.26-8.14-2.24-10.93,1.69-10.9,15.35-27.92,25.34-50.6,29.67-22.9,4.38-46.02,1.98-61.38-.81-17.83-3.23-47.68-8.65-52.98-29.17-2.48-9.59,2.14-21.26,10.97-27.75,9.23-6.78,22.63-8.59,35.83-4.83,13.15,3.74,37.43,15.79,52.36,54.53,1.75,4.53,6.58,5.78,10.25,4.37,3.75-1.44,5.37-5.06,3.93-8.79-8.12-21.09-24.04-48.85-53.75-61.3-15.49-6.49-31.48-7.35-45.02-2.43-14.17,5.15-24.88,16.47-28.65,30.26-3.84,14.06,.35,28.44,11.22,38.47,10.5,9.69,24.15,14.26,36.12,17.46,17.75,4.74,35.67,7.15,52.8,7.15,6.93,0,13.72-.39,20.32-1.19,31.72-3.81,56.33-16.87,71.16-37.77,2.29-3.23,1.59-7.25-1.67-9.57Z"/>
      <path class="cls-1" d="M123.85,278.53c31.71,0,60.92-9.8,82.5-28.13,19.22-16.33,32.37-38.93,39.07-67.17,5.67-23.88,6.41-50.93,2.13-78.22-.39-2.49-1.85-4.4-4.01-5.23-2.43-.94-5.44-.39-7.66,1.4-2.21,1.78-3.22,4.42-2.78,7.22,10.93,69.72-15.26,108.16-27.02,121.45-20.8,23.5-54.06,35.73-91.25,33.56-35.24-2.06-65.59-17.53-81.19-41.37-7.81-11.94-13.2-27.4-16.47-47.27-2.95-17.87-2.93-36.44,.05-53.7,3.67-21.25,11.18-39.22,22.33-53.4,14.28-18.16,35.78-30.76,59-34.57,2.5-.41,4.4-1.89,5.23-4.07,.92-2.45,.36-5.46-1.45-7.66-1.79-2.18-4.42-3.17-7.21-2.71-23.16,3.8-45.6,15.91-61.58,33.23-12.38,13.42-21.84,30.93-27.37,50.64-10.58,37.77-7.41,81.09,8.5,115.88,14.02,30.65,46.04,52.47,85.66,58.36,7.94,1.18,15.8,1.76,23.52,1.76Z"/>
    </g>
  </g>
</svg>