<?xml version="1.0" encoding="UTF-8"?>
<svg id="Calque_2" data-name="Calque 2" xmlns="http://www.w3.org/2000/svg" viewBox="0 0 477.54 289.07">
  <defs>
    <style>
      .cls-1 {
        fill: #1e1f1d;
      }
    </style>
  </defs>
  <g id="ACSENT">
    <g id="OE">
      <path class="cls-1" d="M324.92,59.45v40.48c0,2.33,.88,4.13,2.21,5.38,1.25,1.35,3.06,2.24,5.41,2.24,2.01,0,3.82-.71,5.16-2.01,1.47-1.25,2.46-3.13,2.46-5.61v-35.92c0-2.21-.05-4.5-.1-6.72-.32-14.02-.66-28.51,11.4-36.99,7.7-5.42,17.63-5.19,27.23-4.98,1.9,.04,3.78,.08,5.63,.08h85.78c4.89,0,7.44-3.83,7.44-7.62s-2.56-7.62-7.44-7.62h-83.89c-2.03,0-4.09-.04-6.17-.08-10.75-.2-21.87-.41-31.93,4.53-11.78,5.78-20.43,17.45-22.57,30.47-.99,6.02-.85,12.25-.72,18.27,.05,2.02,.09,4.1,.09,6.1Z"/>
      <path class="cls-1" d="M340.16,228.65c0-4.89-3.83-7.45-7.62-7.45s-7.62,2.56-7.62,7.45c0,1.88-.03,3.78-.06,5.68-.19,11.94-.38,24.28,6.5,35.09,8.06,12.67,21.58,19.64,38.08,19.64h100.66c4.89,0,7.44-3.83,7.44-7.62s-2.56-7.62-7.44-7.62h-94.9c-9.32,0-18.12,0-25.51-6.27-10-8.47-9.8-20.66-9.59-33.55,.03-1.8,.06-3.59,.06-5.36Z"/>
      <path class="cls-1" d="M150.83,88.56c11.83,4.42,25.12,7.58,40.63,9.67,16.69,2.25,31.56,2.45,45.43,.6,3.1-.41,6.31-.97,9.42-1.51,10.49-1.82,21.34-3.71,31.15-.74,11.56,3.5,20.77,13.06,28.5,21.75,5.07,5.7,10.11,11.59,15.08,17.62-6.47,.76-13.37,2.07-20.05,4.6-11.25,4.25-19.04,10.48-23.16,18.51-5.52,10.77-4.7,23.63,2.14,33.57,8.27,12.02,22.85,21.15,38.04,23.83,3.07,.54,6.08,.81,9,.81,8.82,0,16.86-2.45,23.6-7.25,11.08-7.9,16.54-20.14,14.6-32.75-1.62-10.55-7.72-19.69-14.07-27.89,.42,0,.83-.02,1.25-.03,1.63-.04,3.26-.08,4.89-.12,27.11-.7,53.77-.55,78.55-.29,2.73,0,5.06-1.24,6.38-3.47,1.44-2.43,1.47-5.61,.07-8.09-1.3-2.31-3.63-3.65-6.39-3.68-21.16-.23-46.27-.39-72.06,.14-7.38,.15-15.73,.36-24.35,.77-7.23-9.15-16.09-19.99-25.56-30.18-6.72-7.23-17.22-17.38-30.79-22.03-12.68-4.35-25.91-2.17-38.7-.07-1.32,.22-2.64,.43-3.95,.64-14.44,2.29-29.8,2.43-45.65,.42-15.77-2-29.72-5.41-41.45-10.13-13-5.22-20.93-12.21-23.57-20.76-2.94-9.52,.73-20.97,9.14-28.49,8.11-7.25,21.22-10.24,34.2-7.82,12.08,2.25,34.9,10.71,52.11,42.03,2.71,4.93,5.17,10.25,7.31,15.82,1.79,4.65,6.75,5.93,10.51,4.48,3.84-1.48,5.5-5.18,4.02-9-9.5-24.65-23.17-43.28-40.63-55.37-17.55-12.14-46.66-21.11-70.97-6.41-10.8,6.53-18.66,17.83-21.03,30.22-2.13,11.17,.33,22.12,6.95,30.84,6.35,8.36,15.69,14.64,29.39,19.76Zm186.24,67.58c7.18,9.04,16.12,20.29,12.63,31.38-3.38,10.73-15.57,15.34-25.86,14.35-11.85-1.14-24.57-8.24-30.93-17.27-5.49-7.78-4.37-17.59,2.73-23.85,7.41-6.54,18.51-8.63,26.21-9.63,3.47-.45,6.98-.77,10.52-1.01,.63,.81,1.26,1.62,1.88,2.43,.89,1.16,1.84,2.35,2.82,3.59Z"/>
      <path class="cls-1" d="M104.06,287.24c8.24,1.22,16.4,1.83,24.4,1.83,32.89,0,63.19-10.17,85.57-29.17,19.94-16.93,33.57-40.37,40.52-69.67,5.88-24.77,6.64-52.83,2.21-81.15-.4-2.55-1.9-4.5-4.1-5.36-2.49-.96-5.58-.4-7.85,1.44-2.27,1.83-3.31,4.53-2.85,7.41,11.35,72.4-15.85,112.33-28.07,126.14-21.61,24.42-56.17,37.12-94.79,34.86-36.61-2.14-68.14-18.21-84.34-42.98-8.11-12.4-13.71-28.46-17.11-49.1-3.06-18.56-3.04-37.85,.05-55.77,3.81-22.07,11.61-40.74,23.2-55.47,14.83-18.87,37.18-31.96,61.3-35.92,2.56-.42,4.51-1.94,5.35-4.17,.95-2.51,.36-5.6-1.49-7.86-1.83-2.24-4.53-3.25-7.39-2.78-24.01,3.94-47.29,16.5-63.86,34.46-12.84,13.92-22.66,32.08-28.39,52.53-10.98,39.18-7.68,84.12,8.82,120.21,14.54,31.79,47.75,54.41,88.84,60.52Z"/>
    </g>
  </g>
</svg>