<?xml version="1.0" encoding="UTF-8"?>
<svg id="Calque_2" data-name="Calque 2" xmlns="http://www.w3.org/2000/svg" viewBox="0 0 159.48 278.52">
  <defs>
    <style>
      .cls-1 {
        fill: #1e1f1d;
      }
    </style>
  </defs>
  <g id="MAJ">
    <g id="P">
      <path class="cls-1" d="M113.91,5.87C104.87,2.62,94.71,.79,82.86,.29c-9.82-.42-22.05-.94-31.79,2.96-12.93,5.17-21.01,17.45-21.1,32.04-.04,6.24-.02,12.57-.01,18.7,0,3.11,.01,6.22,.01,9.34v8.01c0,4.72,3.83,7.26,7.44,7.26,1.89,0,3.67-.64,5.02-1.79,1.55-1.34,2.41-3.28,2.41-5.47v-21.3c0-1.82-.07-3.67-.15-5.63-.21-5.37-.43-10.92,.94-15.51,1.66-5.56,6.08-10.19,11.54-12.09,3.48-1.21,7.53-1.38,11.45-1.54l1.51-.07c9.62-.45,17.95-.03,25.46,1.27,14.27,2.47,33.25,9.46,42.64,28.76,8.96,18.4,8.98,44.19,.05,62.7-11.44,23.72-36.12,35.43-60.67,38.08-1.77-18.26-6.93-38.05-20.89-51.7-12.16-11.89-29.37-14.42-41.85-6.16C2.24,96.51-3.38,114.54,2.09,129.18c6.52,17.46,25.17,25.24,35.71,28.33,7.98,2.34,16.73,3.72,25.77,4.02,.04,1.94,.05,3.95,.03,6.02-.02,2.67,1.23,4.94,3.42,6.23,1.2,.71,2.59,1.06,3.98,1.06s2.72-.34,3.91-1.01c2.24-1.27,3.54-3.55,3.56-6.24,.02-2.1,.01-4.28-.03-6.53,24.45-2.38,49.11-12.77,64.99-33.34,13.92-18.03,19.03-42.62,14.39-69.24-4.36-24.98-20.36-44.15-43.9-52.61ZM18.22,105.45c2.95-4.74,8.03-7.32,13.43-7.32,2.81,0,5.71,.7,8.44,2.16,12.03,6.43,19.57,21.63,22.41,45.19,.04,.34,.08,.69,.12,1.03-2.2-.09-4.37-.24-6.51-.47-8.88-.94-25.25-4.05-35.2-14.38-6.91-7.18-8-17.71-2.7-26.22Z"/>
      <path class="cls-1" d="M44.83,271.26v-103.69c0-4.72-3.83-7.26-7.44-7.26s-7.43,2.5-7.43,7.26v103.69c0,4.72,3.83,7.26,7.44,7.26s7.43-2.5,7.43-7.26Z"/>
    </g>
  </g>
</svg>