<?xml version="1.0" encoding="UTF-8"?>
<svg id="Calque_2" data-name="Calque 2" xmlns="http://www.w3.org/2000/svg" viewBox="0 0 66.88 298.78">
  <defs>
    <style>
      .cls-1 {
        fill: #1e1f1d;
      }
    </style>
  </defs>
  <g id="Calque_1-2" data-name="Calque 1">
    <path id="_" data-name=")" class="cls-1" d="M59.58,.05c-2.94-.31-5.62,.88-7.37,3.28C5.91,66.82-10.96,151.9,7.1,230.9c5.05,22.08,12.96,43.57,23.51,63.87,1.26,2.43,3.46,3.89,6.02,4,.11,0,.22,0,.33,0,2.73,0,5.44-1.51,6.97-3.91,1.51-2.37,1.61-5.2,.28-7.76C9.93,221.17,6.28,139.14,34.44,67.69c7.74-19.63,18.16-38.5,30.97-56.06,1.57-2.15,1.9-4.67,.91-6.91-1.12-2.52-3.76-4.35-6.74-4.67Z"/>
  </g>
</svg>