<?xml version="1.0" encoding="UTF-8"?>
<svg id="Calque_2" data-name="Calque 2" xmlns="http://www.w3.org/2000/svg" viewBox="0 0 48.12 298.71">
  <defs>
    <style>
      .cls-1 {
        fill: #1e1f1d;
      }
    </style>
  </defs>
  <g id="Calque_1-2" data-name="Calque 1">
    <g id="_" data-name="!">
      <path class="cls-1" d="M19.32,205.29c.23,0,.45,0,.67-.03,4.2-.34,7.01-3.6,6.67-7.76-5.07-63.02-3.39-126.27,5.01-188C32.38,4.33,28.48,.65,24.3,.08c-4.04-.55-7.25,1.89-7.8,5.93C7.8,69.95,5.97,134.51,11.08,197.9c.38,4.75,4.37,7.39,8.24,7.39Z"/>
      <path class="cls-1" d="M46.16,267.58c-2.64-6.84-7.63-12.21-13.7-14.72-7.2-2.97-14.97-1.97-20.8,2.68-4.91,3.92-7.37,9.36-9.59,14.75-1.85,2.71-2.47,5.63-1.83,8.68,1.49,7.09,9.46,12.7,14.08,15.41,4.84,2.84,10.1,4.33,14.93,4.33,2.08,0,4.09-.28,5.94-.85,4.7-1.45,8.38-4.71,10.63-9.45,2.94-6.18,3.06-13.77,.34-20.83Zm-14.49,14.3c-.61,1.01-2.04,3.38-9.46-.97-1.86-1.09-3.79-2.31-5.31-3.79-.09-.09-.2-.24-.33-.41-.04-.05-.08-.1-.12-.16,.18-.44,.31-.89,.4-1.34,1.19-2.78,3.44-7.4,6.34-8.35,1.26-.41,2.67-.12,4.32,.88,3.89,2.37,6.71,9.93,4.16,14.13Z"/>
    </g>
  </g>
</svg>