<?xml version="1.0" encoding="UTF-8"?>
<svg id="Calque_2" data-name="Calque 2" xmlns="http://www.w3.org/2000/svg" viewBox="0 0 62.16 213.89">
  <defs>
    <style>
      .cls-1 {
        fill: #1e1f1d;
      }
    </style>
  </defs>
  <g id="Calque_1-2" data-name="Calque 1">
    <g id="_" data-name=";">
      <path class="cls-1" d="M43.91,87.9c-2.46-1.49-5.72-1.54-8.29-.13-2.4,1.32-3.81,3.71-3.87,6.55-.8,37.87-11.4,75.18-30.65,107.9-1.43,2.42-1.49,5.15-.17,7.48,1.43,2.53,4.24,4.17,7.15,4.2h.06c2.67,0,5-1.38,6.42-3.79,20.59-35,31.92-75,32.78-115.68,.06-2.78-1.2-5.16-3.45-6.52Z"/>
      <path class="cls-1" d="M60.2,15.03c-2.51-6.26-7.17-11.17-12.8-13.48-6.3-2.58-13.25-1.91-18.6,1.79-5.19,3.59-7.78,9.23-9.93,14.44-2.49,3.73-2.56,8.19-.19,12.6,4.3,7.98,15.52,14.23,25.34,14.23,.28,0,.57,0,.85-.02,7.09-.27,12.54-3.87,15.34-10.15,2.6-5.83,2.6-12.91-.01-19.41Zm-14.18,13.06c-.46,.86-.94,1.09-1.3,1.2-.88,.25-2.67,.13-6.18-1.89-1.44-.83-3.11-1.84-4.54-3.09-.2-.17-.4-.39-.62-.63,.11-.32,.2-.64,.26-.97,1.07-2.52,2.84-6.15,5.06-6.99,.9-.34,1.93-.21,3.15,.4,1.79,.89,3.48,3.15,4.31,5.75,.76,2.38,.71,4.64-.14,6.22Z"/>
    </g>
  </g>
</svg>