<?xml version="1.0" encoding="UTF-8"?>
<svg id="Calque_2" data-name="Calque 2" xmlns="http://www.w3.org/2000/svg" viewBox="0 0 100.59 298.7">
  <defs>
    <style>
      .cls-1 {
        fill: #1e1f1d;
      }
    </style>
  </defs>
  <g id="Calque_1-2" data-name="Calque 1">
    <g id="_" data-name="?">
      <path class="cls-1" d="M84.67,20.05C72.21,5.39,50.25-2.4,30.04,.66,18.47,2.41,8.98,8.56,3.98,17.54c-5.39,9.69-5.31,20.88,.22,29.19,2.85,4.29,7.9,4.28,11.2,2.08,3.07-2.04,4.79-6.2,2.12-10.2-3.03-4.56-2.4-10.75,1.62-15.76,5.23-6.52,14.64-7.31,19.81-7.21,17.11,.35,31.77,8.7,39.21,22.36,15.9,29.15,1.2,61.93-11.77,90.85-.72,1.61-1.43,3.2-2.13,4.77-8.14,18.29-16.86,39.73-17.16,62.69-.06,4.96,3.79,7.6,7.63,7.65,.04,0,.07,0,.1,0,3.79,0,7.81-2.64,7.87-7.59,.29-22.5,9.64-43.26,18.68-63.34,8.88-19.72,18.06-40.11,19.1-62.58,.88-19.15-4.89-37.52-15.83-50.39Z"/>
      <path class="cls-1" d="M65.31,255.32c-6.35-2.6-13.35-1.93-18.74,1.8-5.23,3.62-7.84,9.31-10,14.57-2.51,3.75-2.58,8.23-.19,12.66,4.34,8.04,15.64,14.34,25.54,14.34,.29,0,.57,0,.86-.02,7.14-.27,12.62-3.9,15.43-10.22,2.62-5.87,2.61-13-.02-19.56-2.53-6.31-7.22-11.25-12.89-13.58Zm-1.29,26.8c-.48,.91-1.01,1.15-1.36,1.25-.91,.26-2.74,.14-6.32-1.91-1.46-.84-3.16-1.87-4.61-3.14-.22-.19-.44-.42-.67-.68,.12-.34,.21-.67,.28-1.01,1.09-2.56,2.9-6.28,5.18-7.14,.93-.35,1.99-.22,3.25,.41,1.83,.91,3.56,3.21,4.4,5.86,.77,2.43,.72,4.74-.14,6.36Z"/>
    </g>
  </g>
</svg>