<?xml version="1.0" encoding="UTF-8"?>
<svg id="Calque_2" data-name="Calque 2" xmlns="http://www.w3.org/2000/svg" viewBox="0 0 260.16 278.17">
  <defs>
    <style>
      .cls-1 {
        fill: #1e1f1d;
      }
    </style>
  </defs>
  <g id="MAJ">
    <path id="Q" class="cls-1" d="M125.01,231.82c16.69,.42,33.8-1.26,50.85-4.99,2.63-.58,5.19-1.19,7.69-1.83,4.41,8.86,9.41,17.68,14.98,26.41,4.97,7.79,10.41,15.53,16.63,23.69,1.64,2.15,3.9,3.07,6.13,3.07,1.84,0,3.67-.63,5.1-1.73,3.12-2.38,3.64-6.23,1.26-9.36-12.14-15.91-22.04-31.31-29.8-46.42,11.39-4.03,21.14-9.02,29.5-15.07,17.43-12.61,30.16-32.95,32.44-51.8,1.64-13.56-2.03-26.09-10.62-36.22-8.64-10.19-25.86-18.24-48.25-10.26-16.35,5.83-28.89,18.12-34.38,33.72-6.62,18.79-.97,39.32,6.12,58.72,1.4,3.84,2.92,7.68,4.56,11.53-14.01,3.44-28.38,5.36-42.75,5.7-24.22,.57-58.48-3.08-84.2-23.7-21.98-17.62-35.22-45.87-35.42-75.57-.2-28.98,9.14-55.76,25.6-73.48,13.71-14.74,34.06-24.11,60.49-27.85,21.81-3.08,44.15-1.74,62.93,3.79,22.58,6.65,39.14,19.24,47.88,36.43,2.11,4.14,3.76,8.79,5.04,14.22,.6,2.56,2.31,4.43,4.68,5.15,2.61,.78,5.61,.05,7.65-1.87,1.93-1.81,2.67-4.38,2.04-7.04h0C219.15,16.21,162.49-3.06,111.66,.39c-30.06,2.04-54.32,10.25-72.09,24.42C17.17,42.65,2.88,72.42,.35,106.48c-2.59,34.87,9.14,67.98,32.18,90.83,27.5,27.29,65.47,33.83,92.48,34.5Zm64.65-100.46c7.1-7.17,18.51-12.6,29.14-12.6,3.83,0,7.57,.71,10.97,2.29,12.84,5.99,16.74,21.55,14.93,33.47-1.95,12.9-9.78,25.67-22.03,35.95-8.1,6.8-18.39,12.3-31.25,16.67-4.57-10.51-8.1-20.9-10.63-31.26-4.63-18.92-1.64-33.9,8.86-44.52Z"/>
  </g>
</svg>