<?xml version="1.0" encoding="UTF-8"?>
<svg id="Calque_2" data-name="Calque 2" xmlns="http://www.w3.org/2000/svg" viewBox="0 0 159.79 278.41">
  <defs>
    <style>
      .cls-1 {
        fill: #1e1f1d;
      }
    </style>
  </defs>
  <g id="MAJ">
    <g id="R">
      <path class="cls-1" d="M77.77,145.99c-1.21-7.81-2.54-15.81-4.96-23.55-4.3-13.77-13.12-31.37-30.79-37.02-12.51-4-26.3-.15-34.31,9.59C.67,103.54-1.82,116.08,1.36,126.94c5.17,17.65,23.16,26.07,33.43,29.52,9.5,3.19,19.82,4.91,30.33,5.12,.48,2.72,1.01,5.43,1.64,8.11,5.38,22.88,18.98,41.84,32.14,60.17,5.36,7.46,10.89,15.18,15.74,22.99,4.6,7.41,8.09,14.13,10.68,20.54,1.34,3.32,4.33,4.85,7.27,4.85,1.09,0,2.17-.21,3.16-.61,3.67-1.48,5.2-5.08,3.72-8.74-6.76-16.71-17.26-31.38-27.42-45.56-9.9-13.82-20.13-28.11-26.65-44.06-2.42-5.92-3.98-12.15-5.18-18.42,3.59-.42,7.16-1.01,10.7-1.78,19.77-4.29,37.16-13.95,48.96-27.18,16.5-18.51,23.59-47.57,18.04-74.04-4.82-23.02-18-40.52-37.11-49.28C104.52,1.12,84.62-1.49,61.68,.81c-16.83,1.69-29.46,13.44-31.43,29.25-.76,6.16-.59,12.51-.43,18.65,.07,2.52,.14,5.12,.14,7.62v8.71c0,4.72,3.83,7.26,7.44,7.26s7.43-2.5,7.43-7.26v-23.55c-.02-8.31-.04-15.5,6.06-21.05,6.15-5.6,15.89-5.55,24.48-5.52h1.69c9.48,.02,17.79,.96,25.41,2.9,19.38,4.93,33.08,17.16,38.56,34.44,6.55,20.66,4.5,43.81-5.37,60.44-12.3,20.72-35.43,30.87-57.9,33.29Zm-58.52-16.28c-2.74-3.4-4.32-7.82-4.34-12.12-.04-8.22,4.59-17.6,14.86-18.79,.75-.09,1.48-.13,2.19-.13,12.8,0,20.48,13.26,23.28,19.21,4.21,8.96,6.06,18.84,7.55,28.6-3.54-.15-6.99-.49-10.31-1.01-15.59-2.44-26.77-7.75-33.23-15.77Z"/>
      <path class="cls-1" d="M29.96,174.98v96.17c0,4.72,3.83,7.26,7.44,7.26s7.43-2.5,7.43-7.26v-96.17c0-4.72-3.83-7.26-7.44-7.26s-7.43,2.5-7.43,7.26Z"/>
    </g>
  </g>
</svg>