<?xml version="1.0" encoding="UTF-8"?>
<svg id="Calque_2" data-name="Calque 2" xmlns="http://www.w3.org/2000/svg" viewBox="0 0 175.14 278.52">
  <defs>
    <style>
      .cls-1 {
        fill: #1e1f1d;
      }
    </style>
  </defs>
  <g id="MAJ">
    <g id="S">
      <path class="cls-1" d="M43.53,255.35c-11.21-4-22.11-9.43-32.41-16.15-3.86-2.52-7.85-.84-9.78,2.13-2.05,3.13-2.02,7.9,2.07,10.57,10.98,7.17,23.03,13.11,35.82,17.67,.85,.3,1.7,.45,2.52,.45,1.54,0,2.99-.52,4.18-1.53,2.03-1.73,3.02-4.65,2.51-7.43-.49-2.69-2.28-4.78-4.9-5.71Z"/>
      <path class="cls-1" d="M127.46,259.28c-11.11,2.83-22.88,4.31-34.97,4.38-7.56,.06-15.22-.52-22.76-1.68-2.81-.43-5.45,.6-7.23,2.82-1.79,2.23-2.33,5.23-1.39,7.65,.84,2.15,2.74,3.6,5.24,3.98,9.03,1.39,17.97,2.08,26.71,2.08,15.44,0,30.23-2.15,43.68-6.42,21.7-6.88,35.17-21.13,37.95-40.14,2.48-16.93-5.43-33.31-22.25-46.12-6.81-5.18-14.72-9.71-24.2-13.84-3.67-1.6-7.47-2.99-11.14-4.34-4.56-1.67-9.27-3.4-13.67-5.51-7.03-3.37-14.63-7.73-17.79-14.49-.46-.98-.78-2-.97-3.05,10.82,3.28,22.41,5.99,33.35,4.29,7.51-1.17,14.63-5.64,18.59-11.65,3.22-4.89,4.17-10.39,2.76-15.89-3.58-13.93-18.95-18.49-31.72-16.84-13.98,1.81-25.26,8.17-31.77,17.91-.69,1.03-1.32,2.08-1.9,3.14-.73-.26-1.46-.53-2.19-.8-9.32-3.42-17.78-8.65-24.46-15.12-13.27-12.86-20.74-31.99-19.97-51.16,.44-10.93,3.92-20.77,9.8-27.71,6.67-7.86,17.27-12.96,31.53-15.15,22.89-3.52,47.37,4.21,74.84,23.62,2.09,1.48,4.53,1.76,6.68,.77,2.4-1.11,4.13-3.65,4.39-6.48,.25-2.76-.91-5.27-3.2-6.89C125.11,8.1,99.82-.86,76.27,.06,47.32,1.19,25.7,14.41,16.95,36.32c-7.64,19.13-5.54,43.91,5.47,64.68,9.28,17.49,25.17,30.5,47.3,38.73-.36,4.9,.45,9.73,2.45,14.11,3.54,7.76,10.54,14.29,21.4,19.98,5.49,2.87,11.28,5.01,16.89,7.08,3.41,1.26,6.93,2.56,10.31,4,10.58,4.51,18.83,9.34,25.24,14.75,7.84,6.62,12.38,13.43,13.87,20.81,1.77,8.7-1.14,19.02-7.24,25.68-5.48,5.99-13.48,10.17-25.19,13.15ZM92.24,126.17c7.47-6.3,21.23-10.1,29.02-5.49,1.92,1.14,3.2,2.72,3.6,4.46,.34,1.49,.02,3-.96,4.47-3.09,4.65-9.6,5.19-14.52,4.82-6.89-.52-13.94-2.05-20.93-4.08,1.11-1.58,2.4-3.01,3.79-4.18Z"/>
    </g>
  </g>
</svg>