<?xml version="1.0" encoding="UTF-8"?>
<svg id="Calque_2" data-name="Calque 2" xmlns="http://www.w3.org/2000/svg" viewBox="0 0 238.07 278.36">
  <defs>
    <style>
      .cls-1 {
        fill: #1e1f1d;
      }
    </style>
  </defs>
  <g id="MAJ">
    <g id="T">
      <path class="cls-1" d="M199.5,50.03c-15.46,.79-32.11-1.31-49.52-6.24-4.57-1.3-7.97,1.6-8.97,5.14-.99,3.49,.42,7.89,4.99,9.19,17.55,4.97,34.49,7.3,50.37,6.9,13.25-.33,29.51-2.33,37.72-14.95,6.73-10.36,5.55-27.31-8.09-37.75C215.08,3.97,199.46-.39,182.04,.03c-15.24,.37-30.85,4.58-43.95,11.86-14.57,8.1-25.31,19.5-31.05,32.97-6.84,16.04-8.1,33.55-8.44,47.01-.29,11.73,.02,23.63,.32,35.14,.17,6.64,.35,13.5,.41,20.24l1.12,123.88c.04,4.72,3.88,7.24,7.48,7.24h.07c3.67-.03,7.35-2.55,7.31-7.29l-.87-96.35-.07-8.84c-.1-12.78-.21-25.99-.55-38.99l-.13-4.86c-.38-13.89-.78-28.25,.38-42.24,1.32-15.91,4.97-28.26,11.17-37.76,5.62-8.61,15.68-15.88,29.91-21.6,12.8-5.14,27.05-6.84,40.13-4.79,22.43,3.53,26.86,13.49,27.73,17.6,.77,3.66,.23,6.62-1.65,9.06-4.77,6.2-16.88,7.46-21.86,7.72Z"/>
      <path class="cls-1" d="M7.26,45.55c-4.72,0-7.26,3.83-7.26,7.44s2.5,7.43,7.26,7.43H85.71c4.72,0,7.26-3.83,7.26-7.44s-2.5-7.43-7.26-7.43H7.26Z"/>
    </g>
  </g>
</svg>