<?xml version="1.0" encoding="UTF-8"?>
<svg id="Calque_2" data-name="Calque 2" xmlns="http://www.w3.org/2000/svg" viewBox="0 0 190.41 349.11">
  <defs>
    <style>
      .cls-1 {
        fill: #1e1f1d;
      }
    </style>
  </defs>
  <g id="ACSENT">
    <g id="_Û" data-name="Û">
      <path class="cls-1" d="M122.35,14.12C117.09,8.02,110.54,.44,101.75,.02c-8.49-.41-15.96,5.32-22.55,10.37-1.42,1.09-2.76,2.11-4.04,3.03-8.54,6.06-17.33,12.55-26.13,19.28-2.33,1.78-3.44,4.47-3.06,7.4,.38,2.91,2.2,5.44,4.65,6.46,2.16,.9,4.57,.52,6.62-1.05,7.07-5.41,14.05-10.6,20.73-15.42,3.47-2.51,7.02-5.02,10.53-7.48,.9-.63,1.81-1.3,2.73-1.99,2.56-1.91,5.21-3.88,7.89-4.91,3.87-1.49,9.41,5.33,12.72,9.4,.76,.94,1.46,1.79,2.07,2.48,5.34,6.05,10.48,12.77,15.28,19.99,1.62,2.44,3.97,3.45,6.28,3.45,1.66,0,3.31-.52,4.65-1.42,3-2,4.67-6.06,2.07-9.97-5.55-8.34-11.56-16.16-17.87-23.25-.64-.72-1.3-1.48-1.98-2.27Z"/>
      <path class="cls-1" d="M140.24,318.41c1.16-4.88,2.13-11.94,.65-19-1.79-8.51-6.71-14.54-14.25-17.44-7.59-2.92-16.3-1.81-23.3,2.96-6.55,4.47-10.33,11.35-10.38,18.89-.05,7.66,3.22,14.72,9.46,20.43,5.34,4.89,12.68,8.43,20.13,9.73,2.8,.49,5.62,.73,8.44,.73,11.83,0,23.66-4.21,33.43-12.08,20.09-16.18,24.01-43.72,25.18-65.89,1.6-30.19,.53-59.91-.72-85.01-1.89-37.86-5.1-72.41-9.82-105.62-.36-2.54-1.81-4.49-3.98-5.36-2.46-.99-5.53-.46-7.84,1.35-2.32,1.82-3.42,4.53-3,7.44,7.27,51.16,10.9,103.32,10.77,155.05,0,2.05,0,4.11,0,6.17,.02,17.65,.04,35.89-4.39,52.86-3.73,14.3-13.72,30.42-30.38,34.79Zm-15.56-.83c-.14,.44-.23,.88-.29,1.3-4.64-.98-8.76-2.98-11.76-5.79-3.89-3.64-6.14-9.77-2.66-13.98,1.82-2.2,4.81-3.54,7.85-3.54,.11,0,.21,0,.32,0,2.73,.08,5.04,1.23,6.49,3.23,2.71,3.71,2.72,10.03,.05,18.78Z"/>
      <path class="cls-1" d="M.08,214.9c.23,21.69,.48,44.12,4.95,65.68,4.43,21.35,12.43,36.98,24.45,47.8,14.85,13.37,35.66,20.73,58.59,20.73h.03c4.89,0,7.45-3.84,7.44-7.63,0-3.78-2.56-7.61-7.44-7.61-.03,0-.02,0-.03,0-12.93,0-31.46-2.6-46.3-14.97-10.77-8.98-17.7-22.08-21.8-41.25-4.12-19.24-4.37-39.57-4.61-59.22l-.04-3.59c-.29-22.58,.23-45.42,1.55-67.86,1.52-25.89,4.13-51.95,7.75-77.43,.71-5.03-3.06-8.63-7.12-9.2-3.97-.57-7.14,1.81-7.7,5.78C2.8,115.31-.47,164.73,.06,213l.02,1.9Z"/>
    </g>
  </g>
</svg>