<?xml version="1.0" encoding="UTF-8"?>
<svg id="Calque_2" data-name="Calque 2" xmlns="http://www.w3.org/2000/svg" viewBox="0 0 187.36 278.46">
  <defs>
    <style>
      .cls-1 {
        fill: #1e1f1d;
      }
    </style>
  </defs>
  <g id="MAJ">
    <path id="V" class="cls-1" d="M140.93,.14c-12.33-1.25-24.91,5.63-32.03,17.53-15.83,26.46,2.34,53.91,16.93,75.97,1.14,1.73,2.26,3.42,3.34,5.08,1.5,2.3,3.9,3.55,6.57,3.4,2.81-.15,5.42-1.81,6.64-4.22,1.11-2.18,.93-4.69-.5-6.89-1.52-2.33-3.16-4.73-4.89-7.27-11.23-16.45-25.2-36.92-16.71-55.81,3.25-7.23,10.94-14.36,20.15-12.93,7.92,1.22,15.08,7.53,21.92,19.27,21.23,36.47,4.93,82.69-8.16,119.82-.7,1.99-1.39,3.95-2.07,5.89-4.73,13.51-8.19,24.84-10.89,35.67-.68,2.71-1.33,5.44-1.98,8.17-2.16,9.07-4.4,18.44-7.67,27.21-9.93,26.59-30.36,34.07-44.83,32.38-34.04-3.96-35.5-43.62-36.57-72.57-.11-2.94-.21-5.77-.35-8.44-2.58-51.51-14.41-106.94-35.14-164.73-.94-2.62-3.03-4.4-5.73-4.89-2.79-.51-5.7,.48-7.43,2.51C-.03,17.12-.41,19.56,.46,21.99c20.59,57.38,32.22,111.81,34.56,161.76,.15,3.3,.27,6.7,.38,9.99,.51,15.41,1.04,31.34,6.02,46.31,7.11,21.34,23.31,35.56,43.33,38.03,2.05,.25,4.1,.38,6.14,.38,21.15,0,41.28-13.38,51.4-34.77,5.18-10.94,8.06-22.78,10.84-34.23l.78-3.19c3.56-14.53,7.43-27.72,11.83-40.31l1.42-4.06c14.97-42.71,33.6-95.86,6.06-138.3C163.79,9.06,153.23,1.39,140.93,.14Z"/>
  </g>
</svg>