<?xml version="1.0" encoding="UTF-8"?>
<svg id="Calque_2" data-name="Calque 2" xmlns="http://www.w3.org/2000/svg" viewBox="0 0 313.6 278.25">
  <defs>
    <style>
      .cls-1 {
        fill: #1e1f1d;
      }
    </style>
  </defs>
  <g id="MAJ">
    <g id="W">
      <path class="cls-1" d="M310.56,1.19c-2.27-1.47-5.36-1.58-7.86-.3-2.38,1.22-3.83,3.5-3.96,6.24-1.14,23.08-1.39,48.22-.76,76.87l.13,5.65c.53,23.41,1.08,47.62-1.16,71.3-4.24,44.9-13.98,92.06-54.04,101.43-34.53,8.08-57.32-26.83-73.96-52.32-.83-1.27-1.64-2.51-2.44-3.73-11.35-17.28-23.08-35.15-27.39-56.25-5.51-27.01,3.56-45.77,13.88-54.33,7.17-5.94,16.19-7.05,24.12-2.97,8.83,4.54,11.29,13.75,11.98,18.83,2.75,20.49-10.14,39.14-24.47,56.23-1.8,2.15-2.29,4.88-1.34,7.49,.97,2.67,3.28,4.69,5.89,5.15,2.32,.41,4.61-.48,6.26-2.44,14.94-17.82,28.77-37.51,28.83-60.79,.06-22.13-13.59-39.21-33.2-41.54-10.47-1.24-20.53,2.25-29.1,10.09-7.2,6.59-13.06,16.2-16.08,26.38-8.17,27.55,1.1,55.09,10.32,73.35,4.24,8.39,9.45,16.24,14.49,23.83,1.04,1.57,2.08,3.13,3.11,4.71,.91,1.39,1.82,2.77,2.72,4.16,4.54,6.95,9.24,14.14,14.31,20.95,10.34,13.89,24.91,30.62,45.97,36.8,5.22,1.53,10.58,2.28,15.96,2.28,15.31,0,30.76-6.07,43.42-17.45,19.2-17.25,26.36-42.61,30.45-62.77,6.85-33.75,7.16-67.86,6.66-93.79l-.04-1.95c-.6-31.12-1.22-63.29,.34-94.9,.13-2.61-.98-4.87-3.04-6.19Z"/>
      <path class="cls-1" d="M84.24,274.6c19.27,0,37.8-8.56,51.29-24.14,3.24-3.75,1.94-8.41-.94-10.9-3.06-2.65-7.19-2.38-9.82,.65-12.9,14.89-30.4,21.83-48.01,19.02-16.74-2.67-31.62-13.31-40.82-29.19-11.91-20.55-15.93-44.25-18.11-62.59-2.59-21.84-3.67-45.61-3.28-72.66,.11-7.72,.29-15.57,.48-23.17,.5-21.12,1.02-42.96-.04-64.49-.13-2.74-1.58-5.02-3.96-6.24C8.53-.4,5.44-.28,3.17,1.18,1.11,2.51,0,4.77,.13,7.38,1.21,29.38,.8,51.78,.41,73.44-.17,105.46-.77,138.57,3.39,171.19c7.7,60.36,30.6,94.73,68.07,102.15,4.27,.85,8.54,1.26,12.79,1.26Z"/>
    </g>
  </g>
</svg>