<?xml version="1.0" encoding="UTF-8"?>
<svg id="Calque_2" data-name="Calque 2" xmlns="http://www.w3.org/2000/svg" viewBox="0 0 217.27 278.71">
  <defs>
    <style>
      .cls-1 {
        fill: #1e1f1d;
      }
    </style>
  </defs>
  <g id="MAJ">
    <g id="X">
      <path class="cls-1" d="M146.81,172.3c-9.73-19.91-17.8-41.01-25.6-61.41-6.14-16.06-12.5-32.67-19.64-48.66C92.99,43.06,70.23-7.89,31.99,1.04,17.3,4.47,4.96,16.87,1.3,31.9c-3.83,15.69,.93,33.5,13.07,48.86,12,15.19,29.13,23.54,45.71,31.61l3.54,1.73c17.85,8.75,36,19.19,55.4,31.87,4.49,11.05,9.23,22.05,14.43,32.77,15.55,32.05,38.03,63.79,66.79,94.31,1.53,1.63,3.33,2.31,5.06,2.31,1.9,0,3.73-.81,5.1-2.1,2.68-2.53,3.75-7.11,.45-10.61-27.41-29.09-48.96-59.48-64.04-90.35ZM80.64,106.12c-4.64-2.48-9.48-4.8-14.16-7.04-9.97-4.78-20.27-9.72-29.11-16.42-13.59-10.32-22-24.65-22.48-38.34-.47-13.52,7.64-25.29,19.74-28.62,1.68-.46,3.56-.76,5.62-.76,7.35,0,16.96,3.83,27.51,17.85,8.49,11.29,15.81,24.67,23.73,43.39,5.54,13.08,10.72,26.6,15.74,39.68,.87,2.27,1.75,4.55,2.63,6.84-9.35-5.64-19.12-11.18-29.22-16.57Z"/>
      <path class="cls-1" d="M212.34,6.82c-3.56-1.19-8.18,.04-9.74,4.68-11.96,35.69-28.85,69.32-51.64,102.83-2.26,3.32-1.46,7.39,1.9,9.68,1.33,.91,2.97,1.44,4.63,1.44,2.24,0,4.52-.98,6.12-3.33,23-33.82,40.91-69.62,53.24-106.41,1.46-4.36-1.17-7.77-4.51-8.89Z"/>
      <path class="cls-1" d="M105.71,164.5c-3.11-2.5-7.02-2.09-9.51,1-24.45,30.34-44.96,64.7-60.98,102.15-1.94,4.54,.69,8.88,4.36,10.45,.97,.42,1.94,.62,2.87,.62,2.53,0,4.76-1.48,5.89-4.12,15.79-36.9,35.55-70.21,58.74-98.98,3.06-3.8,1.72-8.64-1.36-11.11Z"/>
    </g>
  </g>
</svg>