<?xml version="1.0" encoding="UTF-8"?>
<svg id="Calque_2" data-name="Calque 2" xmlns="http://www.w3.org/2000/svg" viewBox="0 0 123.71 278.3">
  <defs>
    <style>
      .cls-1 {
        fill: #1e1f1d;
      }
    </style>
  </defs>
  <g id="MAJ">
    <g id="Y">
      <path class="cls-1" d="M114.99,100.08c-5.08-3.62-10.94-4.58-16.97-2.79-7.76,2.31-14.83,9.04-18.01,17.13-3.02,7.72-3.22,16.17-2.91,23.01-.14,0-.28,0-.42,0-13.55,0-25.12-2.25-34.41-6.68-10.84-5.17-18.36-13.67-22.34-25.27-4.99-14.5-5.02-30.39-5.05-44.4-.03-14.32,.43-33.16,4.3-51.89C20.16,4.37,16.76,.95,13.06,.19c-3.99-.83-7.49,1.44-8.3,5.38C1.54,21.16,.03,38.24,0,59.32c-.02,14.02-.04,31.47,4.72,47.43,4.68,15.69,13.44,27.37,26.04,34.72,11.21,6.54,24.84,10.05,41.69,10.73,1.81,.07,3.58,.1,5.3,.08,.08,3.51,.1,7.05,0,10.57-1.06,37.43-12.38,73.5-32.74,104.32-2.53,3.83-.88,7.81,2.07,9.75,1.3,.86,2.89,1.36,4.5,1.36,2.26,0,4.55-.99,6.13-3.38,15.65-23.69,26.53-50.83,31.46-78.47,2.45-13.72,3.64-27.7,3.54-41.54,0-1.32-.06-2.68-.15-4.08,10.55-2.17,18.69-6.73,24.32-13.65,5.11-6.28,7.64-14.96,6.61-22.65-.82-6.08-3.76-11.07-8.5-14.45Zm-19.4,16.27c1.74-2.43,5-5.04,8.04-5.04,.86,0,1.7,.21,2.48,.69,3.19,1.95,3.28,7,2.02,10.87-2.42,7.44-9.36,11.16-16.64,12.97-.24-7.23,.4-14.33,4.08-19.49Z"/>
      <path class="cls-1" d="M110.2,81.37c1.23,.88,2.76,1.33,4.34,1.33,1.16,0,2.35-.25,3.45-.75,2.55-1.16,4.17-3.43,4.45-6.23,2.26-23,1.45-46.57-2.4-70.05-.64-3.92-3.84-6.2-7.8-5.56-3.89,.64-7.44,4.18-6.65,8.99,3.53,21.51,4.21,43.76,2.01,66.13-.25,2.53,.7,4.77,2.61,6.13Z"/>
    </g>
  </g>
</svg>