<?xml version="1.0" encoding="UTF-8"?>
<svg id="Calque_2" data-name="Calque 2" xmlns="http://www.w3.org/2000/svg" viewBox="0 0 238.37 278.09">
  <defs>
    <style>
      .cls-1 {
        fill: #1e1f1d;
      }
    </style>
  </defs>
  <g id="MAJ">
    <g id="Z">
      <path class="cls-1" d="M230.99,257.02c-10.36,.46-20.88,1.15-31.06,1.82-22.37,1.46-45.5,2.97-68.2,2.2-16.29-.55-31.82-2.48-46.15-5.73-12.11-2.74-23.56-6.54-34.01-10.51,2.77-4.17,5.68-8.44,8.76-12.86,10.96-15.74,22.65-31.37,33.96-46.48l.71-.94c26.55-35.48,52.29-72.23,76.51-109.23,2.52-3.86,.84-7.84-2.12-9.78-3.13-2.05-7.91-2.03-10.58,2.06-20.19,30.85-40.68,60.51-60.91,88.18-5.94,8.12-12.06,16.32-17.98,24.25-14.27,19.12-29.01,38.85-42.42,59.17-.57-.24-1.14-.48-1.71-.72-6.88-2.89-17.04-6.11-25.75-.61C3.8,241.77-.14,249.4,0,257.26c.14,7.23,3.42,14.08,8.58,17.87,2.69,1.98,5.77,2.96,9.01,2.96,3.86,0,7.94-1.39,11.83-4.16,6.06-4.3,10.06-10.35,13.84-16.31,27.47,10.86,56.46,16.98,86.2,18.19,23.65,.96,47.62-.61,70.8-2.12,10.15-.66,20.66-1.35,30.96-1.81,2.74-.12,5.01-1.55,6.24-3.92,1.3-2.5,1.19-5.58-.27-7.87-1.32-2.07-3.58-3.19-6.2-3.07Zm-213.39,6.07c-.8-.1-1.63-1.33-2.28-3.36-.76-2.39-.46-5.27,.76-7.33,.86-1.46,2.08-2.34,3.61-2.64,.62-.12,1.26-.18,1.92-.18,2.47,0,5.17,.78,7.89,1.87-7.17,10.34-10.48,11.82-11.9,11.64Z"/>
      <path class="cls-1" d="M18.43,17.72c-.9,3.52,.58,7.7,5.14,8.86h0c27.16,6.91,51.77,11.68,75.25,14.58,26.17,3.23,51.84,6.11,77.39,6.11,3.13,0,6.27-.04,9.4-.13,0,0,0,0,0,0,.01,0,.02,0,.03,0,1.25-.05,2.58-.13,3.97-.23l.08,.14,.1-.15c8.56-.66,19.43-2.55,28.38-8.74,10.61-7.33,14.51-17.96,10.51-28.16-.19-.67-.48-1.36-.91-2.04-.36-.69-.79-1.29-1.29-1.8-2.75-3.42-6.27-5.49-10.3-6.02-5.59-.73-11.83,1.57-17.11,6.32-6.39,5.75-10.79,13.56-15.05,21.11-.93,1.65-1.83,3.24-2.74,4.79-26.24,.4-53.03-2.53-80.41-5.85-22.27-2.7-46.3-7.38-73.45-14.28-4.63-1.18-8.09,1.95-9,5.5Zm181.33,12.63c7.99-12.59,12.03-15.61,14.07-15.67,.02,0,.03,0,.05,0,.2,0,.55,.05,1.03,.74,.71,1.52,.81,2.97,.29,4.45-1.05,2.97-4.65,6.12-9.64,8.42-1.87,.86-3.82,1.54-5.8,2.06Z"/>
    </g>
  </g>
</svg>